<svg xmlns="http://www.w3.org/2000/svg" width="122" height="122" viewBox="0 0 122 122"><defs><style>.a{fill:#018489;}.b{fill:#fff;}</style></defs><g transform="translate(-32 -1)"><circle class="a" cx="61" cy="61" r="61" transform="translate(32 1)"/><g transform="translate(50.749 9.645)"><path class="b" d="M27.849-72H43.118L45.254-82.68H29.985l-13.309.1L9.163-45.095A23.711,23.711,0,0,0,8.736-40.5c0,9.5,6.727,15.162,16.23,15.162,4.8,0,9.717-.854,13.774-3.417l-2.349-9.823a13.6,13.6,0,0,1-7.474,2.242c-4.591,0-6.62-2.456-6.62-6.407A20.848,20.848,0,0,1,22.51-45.2Z" transform="translate(17.667 119.244)"/><path class="b" d="M25.167-78.008,26.9-88.685l2.669-13.027H16.223L13.461-87.93H1.7l-2.738,9.922H25.167Z" transform="translate(22.621 112.518)"/></g></g></svg>