<svg xmlns="http://www.w3.org/2000/svg" width="2rem" height="2rem" viewBox="0 0 49.075 48.848"><defs><style>.a{fill:#0a66c2;}.a,.b{fill-rule:evenodd;}.b{fill:#fff;}</style></defs><path class="a" d="M11.083,0h26.91A11.115,11.115,0,0,1,49.075,11.083V37.769A11.115,11.115,0,0,1,37.993,48.848H11.083A11.115,11.115,0,0,1,0,37.769V11.083A11.115,11.115,0,0,1,11.083,0Z" transform="translate(0 0)"/><path class="b" d="M33.556,32.971h6.2v3.195h.088a6.889,6.889,0,0,1,6.126-3.195c6.546,0,7.756,4.074,7.756,9.373V53.551H47.262V43.59c0-2.28-.048-5.216-3.363-5.216s-3.882,2.48-3.882,5.052V53.571H33.556Zm-3.67-6.238a3.363,3.363,0,1,1-3.363-3.363A3.363,3.363,0,0,1,29.885,26.733Zm-6.717,6.238h6.717v20.58H23.168Z" transform="translate(-13.91 -14.037)"/></svg>