<svg xmlns="http://www.w3.org/2000/svg" width="2rem" height="2rem" viewBox="0 0 55.79 61.44"><defs><style>.a{fill:#018489;fill-rule:evenodd;}.b{fill:#fff;}</style></defs><path class="a" d="M52.775,0H3.015A3.022,3.022,0,0,0,0,3.015v55.41A3.022,3.022,0,0,0,3.015,61.44h49.76a3.022,3.022,0,0,0,3.015-3.015V3.015A3.022,3.022,0,0,0,52.775,0Z"/><path class="b" d="M23.02,60.15l1.84-.13a1.682,1.682,0,0,0,.245.77.984.984,0,0,0,.855.43A.866.866,0,0,0,26.6,61a.689.689,0,0,0,.015-1,2.3,2.3,0,0,0-.99-.41,3.98,3.98,0,0,1-1.82-.86,1.823,1.823,0,0,1-.55-1.365,2.058,2.058,0,0,1,.28-1.03,1.914,1.914,0,0,1,.845-.765,3.547,3.547,0,0,1,1.545-.275,2.9,2.9,0,0,1,1.835.505,2.264,2.264,0,0,1,.75,1.6l-1.825.12a1.186,1.186,0,0,0-.305-.7.908.908,0,0,0-.645-.22.733.733,0,0,0-.51.16.515.515,0,0,0-.17.4.413.413,0,0,0,.14.305,1.435,1.435,0,0,0,.645.26,7.478,7.478,0,0,1,1.82.625,1.984,1.984,0,0,1,.8.785,2.2,2.2,0,0,1,.25,1.05,2.433,2.433,0,0,1-.335,1.255,2.183,2.183,0,0,1-.935.87,3.358,3.358,0,0,1-1.51.295,2.865,2.865,0,0,1-2.215-.695,2.847,2.847,0,0,1-.695-1.755ZM48.6,28.075l-7.32,7.39V31.78c-4.625-.96-8.285.1-11.06,3.615.48-7.235,5.425-10.73,11.06-10.96V20.68l7.32,7.4ZM29.57,55.41h1.94v2.47h2.12V55.41h1.945v7.08H33.63V59.625H31.51V62.49H29.57V55.41Zm11.155,5.915H38.53l-.315,1.165h-1.98L38.6,55.41h2.125l2.355,7.08H41.05l-.325-1.165Zm-.41-1.535-.685-2.545-.69,2.545h1.375Zm3.4,2.7V55.41h3.23a4.207,4.207,0,0,1,1.375.175,1.472,1.472,0,0,1,.765.645A2.414,2.414,0,0,1,49.15,58.4a1.878,1.878,0,0,1-.615.695,2.3,2.3,0,0,1-.68.28,1.85,1.85,0,0,1,.505.26,2.44,2.44,0,0,1,.31.37,2.907,2.907,0,0,1,.27.44l.94,2.045H47.69l-1.035-2.16a1.711,1.711,0,0,0-.35-.545.752.752,0,0,0-.475-.165h-.17V62.48H43.715Zm1.945-4.2h.82A2.957,2.957,0,0,0,47,58.2a.533.533,0,0,0,.315-.22.722.722,0,0,0,.125-.41.679.679,0,0,0-.195-.525,1.054,1.054,0,0,0-.725-.185H45.66V58.29Zm4.85-2.88H55.7v1.515H52.455V58.05H55.46V59.5H52.455v1.4H55.8v1.6H50.51V55.41Z" transform="translate(-11.51 -10.34)"/><path class="b" d="M55.79,72.655H0V70.94H55.79Z" transform="translate(0 -35.47)"/></svg>