<svg height="512" viewBox="0 0 58 52" width="512" xmlns="http://www.w3.org/2000/svg"><g id="Page-1" fill="none" fill-rule="evenodd"><g id="016---Certificate" fill-rule="nonzero"><path id="Shape" d="m57.41.59c-.3704612-.3798589-.8794095-.59282307-1.41-.59h-54c-.53059053-.00282307-1.0395388.2101411-1.41.59-.3798589.3704612-.59282307.87940947-.59 1.41v42c-.00282307.5305905.2101411 1.0395388.59 1.41.3704612.3798589.87940947.5928231 1.41.59h53c1.6568542 0 3-1.3431458 3-3v-41c.0028231-.53059053-.2101411-1.0395388-.59-1.41z" fill="#f3d55b"/><path id="Shape" d="m58 2v41c.0000702.7955351-.3165773 1.5583676-.88 2.12l-4.12-4.12v-36l4.41-4.41c.3798589.3704612.5928231.87940947.59 1.41z" fill="#f0c419"/><path id="Shape" d="m5 5v36l-4.41 4.41c-.3798589-.3704612-.59282307-.8794095-.59-1.41v-42c-.00282307-.53059053.2101411-1.0395388.59-1.41z" fill="#f0c419"/><path id="Shape" d="m57.12 45.12c-.5616324.5634227-1.3244649.8800702-2.12.88h-53c-.53059053.0028231-1.0395388-.2101411-1.41-.59l4.41-4.41h48z" fill="#f29c1f"/><path id="Rectangle-path" d="m5 5h48v36h-48z" fill="#ecf0f1"/><path id="Shape" d="m53 5s-48 0-48 36v-36z" fill="#fff"/><path id="Shape" d="m36 12h-14c-.5522847 0-1-.4477153-1-1s.4477153-1 1-1h14c.5522847 0 1 .4477153 1 1s-.4477153 1-1 1z" fill="#bdc3c7"/><path id="Shape" d="m26 34h-14c-.5522847 0-1-.4477153-1-1s.4477153-1 1-1h14c.5522847 0 1 .4477153 1 1s-.4477153 1-1 1z" fill="#95a5a5"/><path id="Shape" d="m39 17h-20c-.5522847 0-1-.4477153-1-1s.4477153-1 1-1h20c.5522847 0 1 .4477153 1 1s-.4477153 1-1 1z" fill="#bdc3c7"/><path id="Shape" d="m34.9999755 37.4.0000245 12.98c-.002433.3483719.1766148.672901.4726128.8566239.2959979.1837229.6662778.2001558.9773872.0433761l2.6-1.31c.2836743-.1399671.6163257-.1399671.9 0l2.6 1.31c.3111094.1567797.6813893.1403468.9773872-.0433761.295998-.1837229.4750458-.508252.4726128-.8566239l.0000245-12.98z" fill="#ff5364"/><path id="Shape" d="m26 30c-2.4486412.0000373-4.8558796-.6316518-6.989-1.834-2.1367022 1.2131934-4.5539282 1.845513-7.011 1.834-.5522847 0-1-.4477153-1-1s.4477153-1 1-1c1.7924261.0079437 3.5643041-.3817465 5.188-1.141-1.03788-.7956355-1.7017283-1.9840506-1.835-3.285 0-.6.263-2.574 3.647-2.574s3.647 1.97 3.647 2.574c-.1325892 1.3025808-.7959802 2.4929952-1.834 3.291 1.6242807.7558114 3.3955011 1.1433832 5.187 1.135.5522847 0 1 .4477153 1 1s-.4477153 1-1 1zm-7-7c-.76 0-1.647.15-1.647.574s.449 1.278 1.639 2.194c1.064-.814 1.655-1.665 1.655-2.194 0-.424-.887-.574-1.647-.574z" fill="#95a5a5"/><path id="Shape" d="m49 30.5c0 1.153-2.153 1.868-2.569 2.871-.431 1.039.569 3.064-.214 3.847s-2.808-.217-3.846.213c-1.003.416-1.718 2.569-2.871 2.569s-1.868-2.153-2.871-2.569c-1.039-.431-3.064.569-3.847-.214s.217-2.808-.213-3.846c-.416-1.003-2.569-1.718-2.569-2.871s2.153-1.868 2.569-2.871c.431-1.039-.569-3.064.214-3.847s2.808.217 3.846-.213c1-.416 1.718-2.569 2.871-2.569s1.868 2.153 2.871 2.569c1.039.431 3.064-.569 3.847.214s-.217 2.808.213 3.846c.416 1.003 2.569 1.718 2.569 2.871z" fill="#fb7b76"/><circle id="Oval" cx="39.5" cy="30.5" fill="#df4d60" r="3.5"/></g></g></svg>