<svg id="Capa_1" enable-background="new 0 0 512 512" height="512" viewBox="0 0 512 512" width="512" xmlns="http://www.w3.org/2000/svg"><g><g><path d="m483.73 164.167v304.13h-455.46v-304.13c0-15.62 12.67-28.29 28.3-28.29h398.86c15.63 0 28.3 12.67 28.3 28.29z" fill="#dfeaef"/><path d="m28.27 423.127h455.46v45.17h-455.46z" fill="#b4d0d5"/><path d="m138.381 95.766h235.238v385.457h-235.238z" fill="#6ec17d" transform="matrix(0 1 -1 0 544.495 32.495)"/><path d="m504.5 441.114h-497v16.622c0 22.722 18.42 41.141 41.141 41.141h414.717c22.722 0 41.141-18.42 41.141-41.141v-16.622z" fill="#dfeaef"/><path d="m282.952 469.995h-53.905c-15.483 0-28.035-12.552-28.035-28.035v-.847h109.975v.847c0 15.484-12.551 28.035-28.035 28.035z" fill="#b4d0d5"/><path d="m93.601 498.877h-44.96c-22.73 0-41.15-18.42-41.15-41.14v-16.62h44.96v16.62c0 22.72 18.42 41.14 41.15 41.14z" fill="#b4d0d5"/><path d="m366.55 164.417v42.25c0 25.23-15.07 48.14-38.38 57.82-46.14 19.18-98.2 19.18-144.34 0-23.31-9.68-38.38-32.59-38.38-57.82v-42.25z" fill="#665e66"/><path d="m284.976 276.63c-33.92 5.28-68.97 1.24-101.15-12.14-23.31-9.68-38.38-32.59-38.38-57.82v-42.25h57.95v42.25c0 25.23 15.07 48.14 38.38 57.82 13.97 5.81 28.48 9.86 43.2 12.14z" fill="#454045"/><path d="m366.55 164.417v16.94l-90.49 47.94c-12.55 6.64-27.57 6.64-40.12 0l-90.49-47.94v-16.94z" fill="#454045"/><path d="m421.086 94.94-145.029-76.829c-12.546-6.646-27.569-6.646-40.115 0l-145.028 76.829c-16.285 8.627-16.285 31.958 0 40.585l145.029 76.829c12.546 6.646 27.569 6.646 40.115 0l145.029-76.829c16.284-8.627 16.284-31.957-.001-40.585z" fill="#665e66"/><g><path d="m320.515 288.497-16.275 28.188c-5.873 10.172 1.468 22.887 13.214 22.887h6.121c11.746 0 19.087-12.715 13.214-22.887z" fill="#f4dd45"/></g></g><g><path d="m504.5 433.613h-13.27v-269.446c0-19.735-16.06-35.79-35.8-35.79h-17.617c1.926-4.03 2.988-8.5 2.988-13.145 0-11.31-6.207-21.626-16.2-26.923l-98.07-51.95c-3.66-1.94-8.2-.544-10.138 3.117-1.939 3.66-.543 8.199 3.117 10.138l98.068 51.949c5.149 2.729 8.223 7.839 8.223 13.669s-3.074 10.939-8.221 13.667l-95.332 50.502-60.608-69.114c-2.731-3.115-7.47-3.425-10.584-.694s-3.425 7.47-.694 10.584l58.264 66.441-36.072 19.109c-10.365 5.483-22.74 5.483-33.102.002l-145.03-76.828c-5.148-2.729-8.223-7.839-8.223-13.668s3.074-10.939 8.221-13.668l145.027-76.828c10.365-5.484 22.74-5.484 33.101-.002l20.76 11c3.66 1.94 8.2.545 10.139-3.115s.544-8.2-3.115-10.139l-20.764-11.002c-14.758-7.809-32.38-7.809-47.139.001l-145.032 76.831c-9.991 5.296-16.197 15.612-16.197 26.922 0 4.645 1.062 9.114 2.988 13.145h-17.618c-19.74 0-35.8 16.055-35.8 35.79v269.446h-13.27c-4.142 0-7.5 3.358-7.5 7.5v16.623c0 26.821 21.82 48.642 48.641 48.642h414.717c26.821 0 48.642-21.82 48.642-48.642v-16.623c0-4.143-3.358-7.501-7.5-7.501zm-183.984-130.116 9.779 16.938c2.021 3.501.673 6.592 0 7.758s-2.676 3.879-6.719 3.879h-6.121c-4.043 0-6.045-2.713-6.719-3.879-.674-1.167-2.021-4.257 0-7.758zm7.5-110.176 31.034-16.44v29.783c0 21.39-12.088 40.566-31.034 49.672zm-72.017 31.521c8.095 0 16.192-1.953 23.572-5.857l33.445-17.717v60.871c-40.978 13.574-86.315 12.05-126.312-4.574-20.505-8.522-33.754-28.502-33.754-50.9v-29.785l79.483 42.106c7.378 3.905 15.471 5.856 23.566 5.856zm-220.229-60.675c0-11.464 9.331-20.79 20.8-20.79h33.137l37.753 20h-64.19c-4.142 0-7.5 3.358-7.5 7.5v235.24c0 4.142 3.358 7.5 7.5 7.5h39.59c4.142 0 7.5-3.358 7.5-7.5s-3.358-7.5-7.5-7.5h-32.09v-220.24h67.18v28.287c0 28.479 16.877 53.895 42.998 64.752 23.848 9.912 49.45 14.868 75.053 14.868 19.254 0 38.507-2.805 57.016-8.411v8.614l-15.27 26.448c-4.114 7.125-4.114 15.633 0 22.758s11.481 11.379 19.709 11.379h6.121c8.228 0 15.595-4.254 19.709-11.379s4.114-15.633 0-22.758l-15.27-26.448v-13.854c1.014-.401 2.029-.798 3.037-1.217 26.12-10.857 42.997-36.273 42.997-64.752v-28.287h67.18v220.24h-308.37c-4.142 0-7.5 3.358-7.5 7.5s3.358 7.5 7.5 7.5h315.87c4.142 0 7.5-3.358 7.5-7.5v-235.24c0-4.142-3.358-7.5-7.5-7.5h-64.191l37.753-20h33.137c11.469 0 20.8 9.326 20.8 20.79v269.446h-440.459zm266.61 284.45c-2.771 8.065-10.434 13.878-19.427 13.878h-53.905c-8.994 0-16.656-5.813-19.428-13.878zm194.62 9.119c0 18.55-15.092 33.642-33.642 33.642h-414.717c-18.55 0-33.641-15.092-33.641-33.642v-9.123h13.193c.026 0 .051.004.077.004h165.877c3.126 16.422 17.582 28.878 34.901 28.878h53.905c17.318 0 31.774-12.457 34.9-28.878h165.877c.026 0 .051-.004.077-.004h13.193z"/><path d="m258.268 371.117c0-4.142-3.358-7.5-7.5-7.5h-150.145c-4.142 0-7.5 3.358-7.5 7.5s3.358 7.5 7.5 7.5h150.146c4.141 0 7.499-3.358 7.499-7.5z"/><path d="m100.623 347.073h100.39c4.142 0 7.5-3.358 7.5-7.5s-3.358-7.5-7.5-7.5h-100.39c-4.142 0-7.5 3.358-7.5 7.5s3.357 7.5 7.5 7.5z"/></g></g></svg>