<svg xmlns="http://www.w3.org/2000/svg" xmlns:xlink="http://www.w3.org/1999/xlink" width="500" zoomAndPan="magnify" viewBox="0 0 375 374.999991" height="500" preserveAspectRatio="xMidYMid meet" version="1.0"><defs><g/><clipPath id="aecee01155"><path d="M 53.472656 84.671875 L 193.722656 84.671875 L 193.722656 290.171875 L 53.472656 290.171875 Z M 53.472656 84.671875 " clip-rule="nonzero"/></clipPath><clipPath id="3af594f2b4"><path d="M 124.117188 147.28125 L 188.152344 147.28125 L 188.152344 171.703125 L 124.117188 171.703125 Z M 124.117188 147.28125 " clip-rule="nonzero"/></clipPath><clipPath id="e35cdfb31a"><path d="M 175.160156 163.292969 L 179.472656 163.292969 L 179.472656 187.78125 L 175.160156 187.78125 Z M 175.160156 163.292969 " clip-rule="nonzero"/></clipPath></defs><g clip-path="url(#aecee01155)"><path fill="#0e163e" d="M 143.007812 84.699219 L 169.410156 84.699219 C 172.425781 84.699219 174.871094 87.136719 174.886719 90.148438 C 174.886719 90.167969 174.886719 90.183594 174.886719 90.199219 L 176.136719 108.0625 C 176.164062 108.449219 176.433594 108.769531 176.808594 108.867188 C 182.5 110.355469 187.945312 112.441406 193.078125 115.066406 C 193.082031 115.066406 193.082031 115.066406 193.085938 115.070312 C 193.574219 115.324219 193.71875 115.960938 193.382812 116.398438 L 180.878906 132.820312 C 180.628906 133.148438 180.1875 133.265625 179.808594 133.101562 C 177.675781 132.167969 175.476562 131.363281 173.222656 130.6875 C 170.332031 129.824219 167.351562 129.175781 164.300781 128.757812 C 162.46875 128.507812 160.613281 128.339844 158.734375 128.261719 C 157.898438 128.226562 157.054688 128.207031 156.207031 128.207031 C 154.585938 128.207031 152.976562 128.273438 151.382812 128.402344 C 134.042969 129.800781 118.816406 138.664062 108.914062 151.78125 C 101.429688 161.695312 96.992188 174.039062 96.992188 187.421875 C 96.992188 220.125 123.503906 246.632812 156.207031 246.632812 C 164.601562 246.632812 172.578125 244.890625 179.8125 241.742188 C 180.191406 241.582031 180.628906 241.695312 180.878906 242.023438 L 182.054688 243.566406 L 193.378906 258.4375 C 193.714844 258.878906 193.570312 259.519531 193.078125 259.777344 C 193.015625 259.808594 192.957031 259.835938 192.898438 259.867188 C 192.816406 259.910156 192.738281 259.949219 192.65625 259.992188 C 190.082031 261.285156 187.429688 262.449219 184.707031 263.46875 C 182.132812 264.433594 179.5 265.269531 176.808594 265.972656 C 176.433594 266.070312 176.164062 266.394531 176.136719 266.78125 L 174.886719 284.644531 C 174.886719 284.660156 174.886719 284.675781 174.886719 284.695312 C 174.871094 287.703125 172.425781 290.144531 169.410156 290.144531 L 143.007812 290.144531 C 139.992188 290.144531 137.546875 287.703125 137.535156 284.695312 C 137.535156 284.675781 137.53125 284.660156 137.53125 284.644531 L 136.28125 266.78125 C 136.253906 266.394531 135.988281 266.070312 135.609375 265.972656 C 128.375 264.082031 121.53125 261.21875 115.230469 257.523438 C 114.894531 257.332031 114.476562 257.367188 114.183594 257.621094 L 100.664062 269.375 C 100.652344 269.386719 100.640625 269.394531 100.628906 269.410156 C 98.488281 271.53125 95.035156 271.523438 92.902344 269.390625 L 81.523438 258.015625 L 74.234375 250.722656 C 72.101562 248.589844 72.09375 245.136719 74.21875 242.996094 C 74.226562 242.984375 74.238281 242.976562 74.25 242.960938 L 86.003906 229.441406 C 86.257812 229.152344 86.292969 228.730469 86.097656 228.394531 C 82.40625 222.09375 79.542969 215.253906 77.652344 208.019531 C 77.554688 207.644531 77.230469 207.371094 76.84375 207.347656 L 58.976562 206.097656 C 58.960938 206.097656 58.945312 206.097656 58.929688 206.097656 C 55.917969 206.082031 53.480469 203.636719 53.480469 200.621094 L 53.480469 174.21875 C 53.480469 171.203125 55.917969 168.757812 58.929688 168.746094 C 58.945312 168.746094 58.960938 168.746094 58.976562 168.742188 L 76.84375 167.496094 C 77.230469 167.46875 77.554688 167.199219 77.652344 166.824219 C 79.542969 159.585938 82.40625 152.746094 86.097656 146.445312 C 86.292969 146.113281 86.257812 145.691406 86.003906 145.398438 L 84.023438 143.117188 L 74.25 131.878906 C 74.238281 131.867188 74.226562 131.855469 74.21875 131.84375 C 72.09375 129.707031 72.101562 126.25 74.234375 124.121094 L 81.523438 116.828125 L 92.902344 105.449219 C 95.035156 103.320312 98.488281 103.3125 100.628906 105.433594 C 100.640625 105.445312 100.652344 105.453125 100.664062 105.464844 L 114.183594 117.222656 C 114.476562 117.472656 114.894531 117.511719 115.230469 117.316406 C 120.671875 114.128906 126.519531 111.554688 132.679688 109.695312 C 133.648438 109.402344 134.625 109.125 135.609375 108.867188 C 135.988281 108.769531 136.253906 108.445312 136.28125 108.0625 L 136.46875 105.414062 L 136.621094 103.203125 L 137.085938 96.585938 L 137.53125 90.199219 C 137.53125 90.183594 137.535156 90.167969 137.535156 90.148438 C 137.546875 87.136719 139.992188 84.699219 143.007812 84.699219 " fill-opacity="1" fill-rule="nonzero"/></g><g fill="#0e163e" fill-opacity="1"><g transform="translate(127.24515, 209.620841)"><g><path d="M 19.898438 -21.660156 L 8.597656 -21.660156 C 7.4375 -21.660156 6.441406 -21.503906 5.625 -21.214844 C 4.8125 -20.898438 4.101562 -20.398438 3.601562 -19.742188 C 3.074219 -19.058594 2.679688 -18.21875 2.445312 -17.164062 C 2.207031 -16.140625 2.101562 -14.878906 2.101562 -13.433594 L 2.101562 -8.226562 C 2.101562 -6.757812 2.207031 -5.492188 2.445312 -4.441406 C 2.679688 -3.417969 3.074219 -2.550781 3.601562 -1.867188 C 4.128906 -1.210938 4.8125 -0.710938 5.625 -0.421875 C 6.441406 -0.132812 7.4375 0.0273438 8.597656 0.0273438 L 17.585938 0.0273438 C 18.558594 0.0273438 19.320312 -0.367188 19.847656 -1.128906 C 20.347656 -1.867188 20.609375 -3.101562 20.609375 -4.863281 L 20.609375 -11.910156 C 20.609375 -12.90625 20.03125 -13.066406 19.6875 -13.066406 L 10.382812 -13.066406 C 10.171875 -13.066406 9.648438 -12.960938 9.648438 -12.117188 L 9.648438 -10.121094 C 9.648438 -9.253906 10.171875 -9.175781 10.382812 -9.175781 L 16.929688 -9.175781 C 16.929688 -9.175781 16.957031 -5.492188 16.957031 -5.492188 C 16.957031 -4.679688 16.824219 -4.335938 16.71875 -4.179688 C 16.585938 -3.96875 16.378906 -3.890625 16.089844 -3.890625 L 8.726562 -3.890625 C 8.175781 -3.890625 7.703125 -3.941406 7.359375 -4.074219 C 7.019531 -4.179688 6.78125 -4.363281 6.570312 -4.652344 C 6.386719 -4.914062 6.230469 -5.308594 6.152344 -5.808594 C 6.046875 -6.335938 5.992188 -6.992188 5.992188 -7.78125 L 5.992188 -13.878906 C 5.992188 -14.667969 6.046875 -15.324219 6.152344 -15.851562 C 6.230469 -16.324219 6.386719 -16.71875 6.570312 -17.007812 C 6.78125 -17.269531 7.019531 -17.453125 7.359375 -17.585938 C 7.703125 -17.691406 8.175781 -17.769531 8.726562 -17.769531 L 19.898438 -17.769531 C 20.109375 -17.769531 20.636719 -17.847656 20.636719 -18.691406 L 20.636719 -20.742188 C 20.636719 -21.554688 20.109375 -21.660156 19.898438 -21.660156 Z M 19.898438 -21.660156 "/></g></g></g><g fill="#0e163e" fill-opacity="1"><g transform="translate(151.296029, 209.620841)"><g><path d="M 20.003906 -19.742188 C 19.480469 -20.398438 18.796875 -20.898438 17.953125 -21.214844 C 17.140625 -21.503906 16.140625 -21.660156 14.984375 -21.660156 L 8.570312 -21.660156 C 7.414062 -21.660156 6.441406 -21.503906 5.625 -21.214844 C 4.785156 -20.898438 4.101562 -20.398438 3.574219 -19.742188 C 3.074219 -19.085938 2.679688 -18.21875 2.445312 -17.164062 C 2.207031 -16.140625 2.101562 -14.90625 2.101562 -13.433594 L 2.101562 -8.226562 C 2.101562 -6.757812 2.207031 -5.492188 2.445312 -4.46875 C 2.679688 -3.417969 3.074219 -2.550781 3.574219 -1.894531 C 4.101562 -1.210938 4.785156 -0.710938 5.625 -0.421875 C 6.414062 -0.132812 7.414062 0.0273438 8.570312 0.0273438 L 14.984375 0.0273438 C 16.140625 0.0273438 17.140625 -0.132812 17.953125 -0.421875 C 18.796875 -0.710938 19.480469 -1.210938 20.003906 -1.867188 C 20.53125 -2.550781 20.898438 -3.417969 21.136719 -4.46875 C 21.34375 -5.492188 21.476562 -6.757812 21.476562 -8.226562 L 21.476562 -13.433594 C 21.476562 -14.878906 21.34375 -16.140625 21.136719 -17.164062 C 20.898438 -18.21875 20.53125 -19.085938 20.003906 -19.742188 Z M 17.558594 -13.878906 L 17.558594 -7.753906 C 17.558594 -6.992188 17.535156 -6.335938 17.429688 -5.808594 C 17.351562 -5.335938 17.191406 -4.914062 16.980469 -4.652344 C 16.796875 -4.363281 16.535156 -4.179688 16.191406 -4.074219 C 15.851562 -3.941406 15.40625 -3.890625 14.851562 -3.890625 L 8.699219 -3.890625 C 8.148438 -3.890625 7.703125 -3.941406 7.359375 -4.074219 C 7.019531 -4.179688 6.757812 -4.363281 6.570312 -4.652344 C 6.363281 -4.914062 6.230469 -5.335938 6.125 -5.808594 C 6.046875 -6.335938 5.992188 -6.992188 5.992188 -7.753906 L 5.992188 -13.878906 C 5.992188 -14.640625 6.046875 -15.300781 6.125 -15.824219 C 6.230469 -16.324219 6.363281 -16.71875 6.570312 -17.007812 C 6.757812 -17.269531 7.019531 -17.453125 7.359375 -17.585938 C 7.703125 -17.691406 8.148438 -17.769531 8.699219 -17.769531 L 14.851562 -17.769531 C 15.40625 -17.769531 15.851562 -17.691406 16.191406 -17.585938 C 16.535156 -17.453125 16.796875 -17.269531 16.980469 -17.007812 C 17.191406 -16.71875 17.351562 -16.324219 17.429688 -15.824219 C 17.535156 -15.300781 17.558594 -14.640625 17.558594 -13.878906 Z M 17.558594 -13.878906 "/></g></g></g><g fill="#0e163e" fill-opacity="1"><g transform="translate(176.188026, 209.620841)"><g><path d="M 20.003906 -19.742188 C 19.480469 -20.398438 18.796875 -20.898438 17.953125 -21.214844 C 17.140625 -21.503906 16.140625 -21.660156 14.984375 -21.660156 L 8.570312 -21.660156 C 7.414062 -21.660156 6.441406 -21.503906 5.625 -21.214844 C 4.785156 -20.898438 4.101562 -20.398438 3.574219 -19.742188 C 3.074219 -19.085938 2.679688 -18.21875 2.445312 -17.164062 C 2.207031 -16.140625 2.101562 -14.90625 2.101562 -13.433594 L 2.101562 -8.226562 C 2.101562 -6.757812 2.207031 -5.492188 2.445312 -4.46875 C 2.679688 -3.417969 3.074219 -2.550781 3.574219 -1.894531 C 4.101562 -1.210938 4.785156 -0.710938 5.625 -0.421875 C 6.414062 -0.132812 7.414062 0.0273438 8.570312 0.0273438 L 14.984375 0.0273438 C 16.140625 0.0273438 17.140625 -0.132812 17.953125 -0.421875 C 18.796875 -0.710938 19.480469 -1.210938 20.003906 -1.867188 C 20.53125 -2.550781 20.898438 -3.417969 21.136719 -4.46875 C 21.34375 -5.492188 21.476562 -6.757812 21.476562 -8.226562 L 21.476562 -13.433594 C 21.476562 -14.878906 21.34375 -16.140625 21.136719 -17.164062 C 20.898438 -18.21875 20.53125 -19.085938 20.003906 -19.742188 Z M 17.558594 -13.878906 L 17.558594 -7.753906 C 17.558594 -6.992188 17.535156 -6.335938 17.429688 -5.808594 C 17.351562 -5.335938 17.191406 -4.914062 16.980469 -4.652344 C 16.796875 -4.363281 16.535156 -4.179688 16.191406 -4.074219 C 15.851562 -3.941406 15.40625 -3.890625 14.851562 -3.890625 L 8.699219 -3.890625 C 8.148438 -3.890625 7.703125 -3.941406 7.359375 -4.074219 C 7.019531 -4.179688 6.757812 -4.363281 6.570312 -4.652344 C 6.363281 -4.914062 6.230469 -5.335938 6.125 -5.808594 C 6.046875 -6.335938 5.992188 -6.992188 5.992188 -7.753906 L 5.992188 -13.878906 C 5.992188 -14.640625 6.046875 -15.300781 6.125 -15.824219 C 6.230469 -16.324219 6.363281 -16.71875 6.570312 -17.007812 C 6.757812 -17.269531 7.019531 -17.453125 7.359375 -17.585938 C 7.703125 -17.691406 8.148438 -17.769531 8.699219 -17.769531 L 14.851562 -17.769531 C 15.40625 -17.769531 15.851562 -17.691406 16.191406 -17.585938 C 16.535156 -17.453125 16.796875 -17.269531 16.980469 -17.007812 C 17.191406 -16.71875 17.351562 -16.324219 17.429688 -15.824219 C 17.535156 -15.300781 17.558594 -14.640625 17.558594 -13.878906 Z M 17.558594 -13.878906 "/></g></g></g><g fill="#0e163e" fill-opacity="1"><g transform="translate(201.080022, 209.620841)"><g><path d="M 20.058594 -16.769531 C 19.792969 -17.875 19.347656 -18.796875 18.796875 -19.53125 C 18.21875 -20.242188 17.453125 -20.792969 16.5625 -21.136719 C 15.667969 -21.476562 14.617188 -21.660156 13.378906 -21.660156 L 4.207031 -21.660156 L 4.207031 -21.632812 C 3.445312 -21.582031 2.785156 -21.160156 2.390625 -20.53125 C 2.285156 -20.320312 2.183594 -20.082031 2.128906 -19.875 L 2.101562 -1.917969 C 2.15625 -1.628906 2.261719 -1.339844 2.390625 -1.105469 C 2.8125 -0.394531 3.574219 0.0273438 4.390625 0.0273438 L 13.378906 0.0273438 C 14.617188 0.0273438 15.695312 -0.15625 16.5625 -0.5 C 17.453125 -0.839844 18.21875 -1.394531 18.796875 -2.128906 C 19.347656 -2.839844 19.792969 -3.757812 20.058594 -4.863281 C 20.320312 -5.96875 20.453125 -7.28125 20.453125 -8.753906 L 20.453125 -12.882812 C 20.453125 -14.351562 20.320312 -15.667969 20.058594 -16.769531 Z M 5.96875 -4.023438 L 5.96875 -17.613281 C 5.96875 -17.71875 5.992188 -17.769531 6.019531 -17.769531 L 13.300781 -17.769531 C 13.90625 -17.769531 14.433594 -17.691406 14.851562 -17.535156 C 15.273438 -17.375 15.589844 -17.164062 15.824219 -16.824219 C 16.089844 -16.480469 16.273438 -16.035156 16.378906 -15.484375 C 16.480469 -14.878906 16.5625 -14.144531 16.5625 -13.273438 L 16.5625 -8.359375 C 16.5625 -7.492188 16.480469 -6.757812 16.378906 -6.175781 C 16.273438 -5.597656 16.089844 -5.152344 15.824219 -4.8125 C 15.589844 -4.496094 15.273438 -4.257812 14.851562 -4.101562 C 14.433594 -3.941406 13.90625 -3.890625 13.300781 -3.890625 L 5.992188 -3.890625 C 5.992188 -3.890625 5.96875 -3.917969 5.96875 -4.023438 Z M 5.96875 -4.023438 "/></g></g></g><g fill="#0e163e" fill-opacity="1"><g transform="translate(224.946903, 209.620841)"><g><path d="M 24.054688 -21.660156 L 21.6875 -21.660156 C 21.320312 -21.660156 21.03125 -21.632812 20.765625 -21.554688 C 20.503906 -21.476562 20.269531 -21.34375 20.058594 -21.160156 C 19.875 -20.949219 19.6875 -20.714844 19.53125 -20.398438 C 19.375 -20.082031 19.242188 -19.6875 19.085938 -19.191406 L 14.433594 -7.570312 C 14.40625 -7.464844 14.378906 -7.464844 14.351562 -7.464844 L 14.089844 -7.464844 C 14.089844 -7.464844 14.039062 -7.464844 14.011719 -7.570312 L 9.382812 -19.191406 C 9.226562 -19.6875 9.070312 -20.082031 8.9375 -20.398438 C 8.78125 -20.714844 8.597656 -20.949219 8.410156 -21.160156 C 8.203125 -21.34375 7.9375 -21.476562 7.675781 -21.554688 C 7.414062 -21.632812 7.097656 -21.660156 6.757812 -21.660156 L 4.335938 -21.660156 C 3.445312 -21.660156 2.839844 -21.371094 2.523438 -20.820312 C 2.234375 -20.320312 2.101562 -19.480469 2.101562 -18.269531 L 2.101562 -0.894531 C 2.101562 -0.078125 2.628906 0.0273438 2.867188 0.0273438 L 5.125 0.0273438 C 5.363281 0.0273438 5.863281 -0.078125 5.863281 -0.894531 L 5.863281 -16.691406 C 5.863281 -16.71875 5.863281 -16.746094 5.863281 -16.746094 L 5.992188 -16.746094 C 6.019531 -16.746094 6.046875 -16.746094 6.074219 -16.667969 L 10.566406 -5.546875 C 10.75 -4.996094 10.9375 -4.519531 11.121094 -4.128906 C 11.328125 -3.734375 11.539062 -3.417969 11.75 -3.15625 C 12.011719 -2.890625 12.277344 -2.679688 12.589844 -2.578125 C 12.90625 -2.472656 13.25 -2.417969 13.644531 -2.417969 L 14.722656 -2.417969 C 15.117188 -2.417969 15.484375 -2.472656 15.773438 -2.578125 C 16.089844 -2.679688 16.378906 -2.890625 16.613281 -3.15625 C 16.824219 -3.417969 17.0625 -3.734375 17.246094 -4.128906 C 17.429688 -4.519531 17.613281 -4.996094 17.796875 -5.546875 L 22.316406 -16.691406 C 22.316406 -16.746094 22.34375 -16.746094 22.371094 -16.746094 L 22.503906 -16.746094 C 22.503906 -16.746094 22.503906 -16.71875 22.503906 -16.691406 L 22.503906 -0.894531 C 22.503906 -0.078125 23.027344 0.0273438 23.238281 0.0273438 L 25.5 0.0273438 C 25.734375 0.0273438 26.261719 -0.078125 26.261719 -0.894531 L 26.261719 -18.269531 C 26.261719 -19.480469 26.128906 -20.320312 25.839844 -20.820312 C 25.523438 -21.371094 24.921875 -21.660156 24.054688 -21.660156 Z M 24.054688 -21.660156 "/></g></g></g><g fill="#0e163e" fill-opacity="1"><g transform="translate(254.622793, 209.620841)"><g><path d="M 16.191406 -19.214844 C 16.140625 -19.347656 16.089844 -19.503906 16.035156 -19.609375 C 15.613281 -20.976562 14.351562 -21.949219 12.90625 -21.949219 C 12.25 -21.949219 11.617188 -21.765625 11.09375 -21.398438 C 10.9375 -21.320312 10.804688 -21.214844 10.699219 -21.136719 C 10.304688 -20.792969 9.910156 -20.164062 9.542969 -19.214844 L 2.207031 -1 C 2.128906 -0.761719 2.101562 -0.527344 2.15625 -0.367188 C 2.183594 -0.210938 2.3125 0.0273438 2.734375 0.0273438 L 5.625 0.0273438 C 5.96875 0.0273438 6.230469 -0.183594 6.363281 -0.527344 L 7.859375 -4.285156 L 13.617188 -4.285156 C 13.90625 -4.285156 14.167969 -4.417969 14.300781 -4.652344 C 14.457031 -4.863281 14.484375 -5.152344 14.40625 -5.414062 L 13.460938 -7.753906 C 13.328125 -8.070312 13.039062 -8.28125 12.695312 -8.28125 L 9.4375 -8.28125 L 12.800781 -16.796875 C 12.828125 -16.851562 12.855469 -16.875 12.855469 -16.875 L 12.960938 -16.875 C 12.960938 -16.875 12.960938 -16.875 12.984375 -16.824219 L 19.503906 -0.550781 C 19.636719 -0.183594 19.898438 0.0273438 20.269531 0.0273438 L 23.082031 0.0273438 C 23.5 0.0273438 23.605469 -0.238281 23.660156 -0.367188 C 23.710938 -0.527344 23.683594 -0.761719 23.578125 -1 Z M 16.191406 -19.214844 "/></g></g></g><g fill="#0e163e" fill-opacity="1"><g transform="translate(281.749032, 209.620841)"><g><path d="M 20.714844 -21.660156 L 18.375 -21.660156 C 18.136719 -21.660156 17.640625 -21.582031 17.640625 -20.742188 L 17.640625 -4.941406 C 17.640625 -4.914062 17.640625 -4.914062 17.640625 -4.890625 L 17.507812 -4.890625 C 17.480469 -4.890625 17.453125 -4.890625 17.429688 -4.96875 L 9.121094 -19.742188 C 8.910156 -20.136719 8.726562 -20.453125 8.542969 -20.6875 C 8.359375 -20.949219 8.175781 -21.160156 7.992188 -21.292969 C 7.78125 -21.449219 7.542969 -21.554688 7.253906 -21.609375 C 6.992188 -21.632812 6.675781 -21.660156 6.335938 -21.660156 L 4.363281 -21.660156 C 3.601562 -21.660156 3.023438 -21.398438 2.65625 -20.925781 C 2.285156 -20.425781 2.101562 -19.558594 2.101562 -18.269531 L 2.101562 -0.894531 C 2.101562 -0.078125 2.628906 0.0273438 2.867188 0.0273438 L 5.203125 0.0273438 C 5.441406 0.0273438 5.941406 -0.078125 5.941406 -0.894531 L 5.941406 -16.691406 C 5.941406 -16.71875 5.941406 -16.746094 5.941406 -16.746094 L 6.074219 -16.746094 C 6.074219 -16.746094 6.097656 -16.746094 6.152344 -16.667969 L 14.484375 -1.894531 C 14.695312 -1.472656 14.90625 -1.15625 15.089844 -0.921875 C 15.273438 -0.65625 15.457031 -0.472656 15.667969 -0.339844 C 15.878906 -0.183594 16.113281 -0.105469 16.378906 -0.0507812 C 16.613281 0 16.902344 0.0273438 17.269531 0.0273438 L 19.191406 0.0273438 C 19.953125 0.0273438 20.53125 -0.238281 20.898438 -0.734375 C 21.265625 -1.210938 21.449219 -2.078125 21.449219 -3.363281 L 21.449219 -20.742188 C 21.449219 -21.582031 20.925781 -21.660156 20.714844 -21.660156 Z M 20.714844 -21.660156 "/></g></g></g><g fill="#0e163e" fill-opacity="1"><g transform="translate(306.614742, 209.620841)"><g><path d="M 20.714844 -21.660156 L 18.375 -21.660156 C 18.136719 -21.660156 17.640625 -21.582031 17.640625 -20.742188 L 17.640625 -4.941406 C 17.640625 -4.914062 17.640625 -4.914062 17.640625 -4.890625 L 17.507812 -4.890625 C 17.480469 -4.890625 17.453125 -4.890625 17.429688 -4.96875 L 9.121094 -19.742188 C 8.910156 -20.136719 8.726562 -20.453125 8.542969 -20.6875 C 8.359375 -20.949219 8.175781 -21.160156 7.992188 -21.292969 C 7.78125 -21.449219 7.542969 -21.554688 7.253906 -21.609375 C 6.992188 -21.632812 6.675781 -21.660156 6.335938 -21.660156 L 4.363281 -21.660156 C 3.601562 -21.660156 3.023438 -21.398438 2.65625 -20.925781 C 2.285156 -20.425781 2.101562 -19.558594 2.101562 -18.269531 L 2.101562 -0.894531 C 2.101562 -0.078125 2.628906 0.0273438 2.867188 0.0273438 L 5.203125 0.0273438 C 5.441406 0.0273438 5.941406 -0.078125 5.941406 -0.894531 L 5.941406 -16.691406 C 5.941406 -16.71875 5.941406 -16.746094 5.941406 -16.746094 L 6.074219 -16.746094 C 6.074219 -16.746094 6.097656 -16.746094 6.152344 -16.667969 L 14.484375 -1.894531 C 14.695312 -1.472656 14.90625 -1.15625 15.089844 -0.921875 C 15.273438 -0.65625 15.457031 -0.472656 15.667969 -0.339844 C 15.878906 -0.183594 16.113281 -0.105469 16.378906 -0.0507812 C 16.613281 0 16.902344 0.0273438 17.269531 0.0273438 L 19.191406 0.0273438 C 19.953125 0.0273438 20.53125 -0.238281 20.898438 -0.734375 C 21.265625 -1.210938 21.449219 -2.078125 21.449219 -3.363281 L 21.449219 -20.742188 C 21.449219 -21.582031 20.925781 -21.660156 20.714844 -21.660156 Z M 20.714844 -21.660156 "/></g></g></g><g clip-path="url(#3af594f2b4)"><path fill="#0e163e" d="M 176.746094 155.027344 L 176.746094 155.027344 M 124.125 159.441406 L 124.117188 159.4375 L 124.136719 159.4375 L 138.679688 153.9375 L 138.6875 153.925781 L 138.699219 153.929688 L 148.746094 150.128906 L 148.75 150.128906 L 148.753906 150.121094 L 148.769531 150.121094 L 156.269531 147.285156 L 156.265625 147.28125 L 168.308594 151.835938 L 176.75 155.027344 L 188.414062 159.4375 L 173.226562 165.183594 L 172.597656 165.421875 L 163.804688 168.746094 L 156.265625 171.597656 L 147.671875 168.347656 L 147.667969 168.347656 L 139.933594 165.421875 L 137.921875 164.660156 L 124.128906 159.445312 L 124.121094 159.445312 L 124.125 159.441406 " fill-opacity="1" fill-rule="nonzero"/></g><path fill="#0e163e" d="M 172.597656 166.804688 L 172.597656 173.3125 C 172.597656 173.316406 172.597656 173.320312 172.597656 173.328125 C 172.597656 176.035156 170.789062 178.484375 167.859375 180.265625 C 164.898438 182.066406 160.796875 183.179688 156.265625 183.179688 C 155.683594 183.179688 155.105469 183.160156 154.539062 183.125 C 150.148438 182.847656 146.277344 181.519531 143.625 179.566406 C 141.316406 177.867188 139.933594 175.695312 139.933594 173.328125 C 139.933594 173.320312 139.933594 173.316406 139.933594 173.3125 L 139.933594 166.804688 L 156.265625 172.984375 L 172.597656 166.804688 " fill-opacity="1" fill-rule="nonzero"/><g clip-path="url(#e35cdfb31a)"><path fill="#0e163e" d="M 175.753906 181.496094 L 175.765625 181.40625 L 176.292969 175.832031 L 176.316406 175.585938 L 176.574219 172.898438 L 176.359375 172.898438 L 176.359375 169.914062 C 176.0625 169.644531 175.875 169.257812 175.875 168.824219 C 175.875 168.601562 175.925781 168.390625 176.011719 168.203125 C 176.15625 167.894531 176.398438 167.648438 176.699219 167.5 L 176.699219 163.871094 L 177.980469 163.386719 L 177.980469 167.511719 C 178.453125 167.753906 178.777344 168.25 178.777344 168.824219 C 178.777344 169.257812 178.59375 169.644531 178.296875 169.914062 L 178.296875 172.898438 L 178.0625 172.898438 L 178.21875 174.507812 L 178.410156 176.507812 L 178.886719 181.4375 L 178.886719 181.453125 L 179.144531 184.125 L 179.375 186.515625 C 179.382812 186.566406 179.382812 186.625 179.375 186.675781 C 179.300781 187.332031 178.320312 187.828125 177.1875 187.78125 C 176.054688 187.738281 175.203125 187.171875 175.277344 186.515625 L 175.753906 181.496094 " fill-opacity="1" fill-rule="nonzero"/></g></svg>