<svg xmlns="http://www.w3.org/2000/svg" xmlns:xlink="http://www.w3.org/1999/xlink" width="500" zoomAndPan="magnify" viewBox="0 0 375 374.999991" height="500" preserveAspectRatio="xMidYMid meet" version="1.0"><defs><g/><clipPath id="c1f823789f"><path d="M 56.707031 56.707031 L 318.292969 56.707031 L 318.292969 318.292969 L 56.707031 318.292969 Z M 56.707031 56.707031 " clip-rule="nonzero"/></clipPath><clipPath id="34137f8094"><path d="M 187.5 56.707031 C 115.265625 56.707031 56.707031 115.265625 56.707031 187.5 C 56.707031 259.734375 115.265625 318.292969 187.5 318.292969 C 259.734375 318.292969 318.292969 259.734375 318.292969 187.5 C 318.292969 115.265625 259.734375 56.707031 187.5 56.707031 " clip-rule="nonzero"/></clipPath><clipPath id="776e684f2c"><path d="M 96.550781 104.027344 L 278.800781 104.027344 L 278.800781 228.527344 L 96.550781 228.527344 Z M 96.550781 104.027344 " clip-rule="nonzero"/></clipPath><clipPath id="d5c3d54c00"><path d="M 143.410156 160.046875 L 231.632812 160.046875 L 231.632812 193 L 143.410156 193 Z M 143.410156 160.046875 " clip-rule="nonzero"/></clipPath><clipPath id="90069ac852"><path d="M 213.441406 181.695312 L 219.359375 181.695312 L 219.359375 214.796875 L 213.441406 214.796875 Z M 213.441406 181.695312 " clip-rule="nonzero"/></clipPath></defs><g clip-path="url(#c1f823789f)"><g clip-path="url(#34137f8094)"><path fill="#0e163e" d="M 56.707031 56.707031 L 318.292969 56.707031 L 318.292969 318.292969 L 56.707031 318.292969 Z M 56.707031 56.707031 " fill-opacity="1" fill-rule="nonzero"/></g></g><g clip-path="url(#776e684f2c)"><path fill="#ffffff" d="M 278.777344 183.507812 L 278.777344 206.945312 C 278.777344 209.621094 276.617188 211.792969 273.945312 211.804688 C 273.929688 211.804688 273.914062 211.804688 273.902344 211.804688 L 258.058594 212.914062 C 257.714844 212.9375 257.429688 213.179688 257.339844 213.507812 C 256.023438 218.5625 254.171875 223.398438 251.84375 227.953125 C 251.84375 227.957031 251.84375 227.957031 251.839844 227.960938 C 251.617188 228.394531 251.054688 228.519531 250.664062 228.226562 L 236.101562 217.125 C 235.808594 216.902344 235.707031 216.511719 235.851562 216.175781 C 236.675781 214.28125 237.390625 212.328125 237.992188 210.328125 C 238.757812 207.761719 239.332031 205.117188 239.703125 202.40625 C 239.925781 200.78125 240.070312 199.132812 240.144531 197.464844 C 240.175781 196.722656 240.191406 195.976562 240.191406 195.222656 C 240.191406 193.785156 240.132812 192.355469 240.019531 190.941406 C 238.777344 175.550781 230.914062 162.03125 219.28125 153.242188 C 210.488281 146.597656 199.542969 142.65625 187.675781 142.65625 C 158.667969 142.65625 135.160156 166.191406 135.160156 195.222656 C 135.160156 202.671875 136.707031 209.757812 139.496094 216.175781 C 139.640625 216.511719 139.539062 216.902344 139.246094 217.125 L 137.878906 218.167969 L 124.691406 228.21875 C 124.300781 228.515625 123.730469 228.390625 123.503906 227.953125 C 123.476562 227.898438 123.449219 227.847656 123.421875 227.792969 C 123.382812 227.722656 123.347656 227.652344 123.3125 227.578125 C 122.164062 225.292969 121.132812 222.941406 120.226562 220.523438 C 119.375 218.238281 118.628906 215.898438 118.007812 213.507812 C 117.921875 213.179688 117.632812 212.9375 117.289062 212.914062 L 101.449219 211.804688 C 101.433594 211.804688 101.421875 211.804688 101.402344 211.804688 C 98.734375 211.792969 96.570312 209.621094 96.570312 206.945312 L 96.570312 183.507812 C 96.570312 180.828125 98.734375 178.65625 101.402344 178.648438 C 101.421875 178.648438 101.433594 178.644531 101.449219 178.644531 L 117.289062 177.535156 C 117.632812 177.511719 117.921875 177.273438 118.007812 176.941406 C 119.683594 170.515625 122.222656 164.441406 125.5 158.847656 C 125.671875 158.550781 125.636719 158.179688 125.414062 157.917969 L 114.988281 145.917969 C 114.980469 145.90625 114.972656 145.898438 114.960938 145.886719 C 113.078125 143.988281 113.085938 140.921875 114.976562 139.027344 L 125.066406 128.929688 L 131.535156 122.457031 C 133.421875 120.5625 136.488281 120.558594 138.382812 122.441406 C 138.394531 122.449219 138.402344 122.460938 138.414062 122.46875 L 150.40625 132.902344 C 150.664062 133.128906 151.039062 133.160156 151.335938 132.988281 C 156.921875 129.710938 162.988281 127.167969 169.40625 125.488281 C 169.738281 125.402344 169.980469 125.113281 170.003906 124.773438 L 171.109375 108.914062 C 171.109375 108.898438 171.109375 108.882812 171.109375 108.871094 C 171.121094 106.195312 173.292969 104.03125 175.964844 104.03125 L 199.382812 104.03125 C 202.058594 104.03125 204.226562 106.195312 204.238281 108.871094 C 204.238281 108.882812 204.238281 108.898438 204.238281 108.914062 L 205.347656 124.773438 C 205.367188 125.113281 205.609375 125.402344 205.941406 125.488281 C 212.359375 127.167969 218.425781 129.710938 224.015625 132.988281 C 224.3125 133.160156 224.683594 133.128906 224.941406 132.902344 L 226.964844 131.144531 L 236.933594 122.46875 C 236.945312 122.460938 236.953125 122.449219 236.964844 122.441406 C 238.859375 120.558594 241.925781 120.5625 243.816406 122.457031 L 250.28125 128.929688 L 260.375 139.027344 C 262.261719 140.921875 262.269531 143.988281 260.386719 145.886719 C 260.378906 145.898438 260.371094 145.90625 260.359375 145.917969 L 249.933594 157.917969 C 249.710938 158.179688 249.675781 158.550781 249.847656 158.847656 C 252.675781 163.679688 254.960938 168.871094 256.609375 174.335938 C 256.867188 175.199219 257.113281 176.066406 257.339844 176.941406 C 257.429688 177.273438 257.714844 177.511719 258.058594 177.535156 L 260.40625 177.699219 L 262.367188 177.839844 L 268.238281 178.25 L 273.902344 178.644531 C 273.914062 178.644531 273.929688 178.648438 273.945312 178.648438 C 276.617188 178.65625 278.777344 180.828125 278.777344 183.507812 " fill-opacity="1" fill-rule="nonzero"/></g><g fill="#ffffff" fill-opacity="1"><g transform="translate(111.041424, 251.697259)"><g><path d="M 16.40625 -9.8125 L 16.40625 -1.078125 C 16.25 -1.066406 16.078125 -1.03125 15.890625 -0.96875 C 15.710938 -0.914062 15.460938 -0.835938 15.140625 -0.734375 C 14.328125 -0.453125 13.535156 -0.226562 12.765625 -0.0625 C 11.992188 0.101562 11.035156 0.1875 9.890625 0.1875 C 8.078125 0.1875 6.515625 -0.1875 5.203125 -0.9375 C 3.890625 -1.6875 2.894531 -2.753906 2.21875 -4.140625 C 1.539062 -5.523438 1.203125 -7.148438 1.203125 -9.015625 C 1.203125 -11.117188 1.59375 -12.867188 2.375 -14.265625 C 3.15625 -15.671875 4.226562 -16.710938 5.59375 -17.390625 C 6.957031 -18.066406 8.519531 -18.40625 10.28125 -18.40625 C 11.195312 -18.40625 11.9375 -18.363281 12.5 -18.28125 C 13.0625 -18.195312 13.671875 -18.078125 14.328125 -17.921875 C 14.734375 -17.816406 15.097656 -17.738281 15.421875 -17.6875 L 15.296875 -14.421875 C 14.628906 -14.734375 13.929688 -14.972656 13.203125 -15.140625 C 12.484375 -15.304688 11.507812 -15.390625 10.28125 -15.390625 C 9.226562 -15.390625 8.316406 -15.144531 7.546875 -14.65625 C 6.785156 -14.175781 6.195312 -13.484375 5.78125 -12.578125 C 5.363281 -11.671875 5.15625 -10.585938 5.15625 -9.328125 C 5.15625 -8.066406 5.320312 -6.941406 5.65625 -5.953125 C 5.988281 -4.960938 6.5 -4.175781 7.1875 -3.59375 C 7.875 -3.019531 8.726562 -2.734375 9.75 -2.734375 C 10.96875 -2.734375 11.984375 -2.882812 12.796875 -3.1875 L 12.796875 -6.828125 L 10.015625 -6.96875 L 10.015625 -9.8125 Z M 16.40625 -9.8125 "/></g></g></g><g fill="#ffffff" fill-opacity="1"><g transform="translate(128.908282, 251.697259)"><g><path d="M 1.171875 -9.203125 C 1.210938 -11.242188 1.601562 -12.9375 2.34375 -14.28125 C 3.082031 -15.632812 4.085938 -16.644531 5.359375 -17.3125 C 6.640625 -17.988281 8.128906 -18.351562 9.828125 -18.40625 C 11.472656 -18.445312 12.910156 -18.082031 14.140625 -17.3125 C 15.378906 -16.550781 16.320312 -15.460938 16.96875 -14.046875 C 17.625 -12.628906 17.9375 -10.988281 17.90625 -9.125 C 17.863281 -7.050781 17.472656 -5.316406 16.734375 -3.921875 C 16.003906 -2.535156 15 -1.503906 13.71875 -0.828125 C 12.4375 -0.148438 10.945312 0.1875 9.25 0.1875 C 7.570312 0.1875 6.113281 -0.207031 4.875 -1 C 3.644531 -1.789062 2.710938 -2.894531 2.078125 -4.3125 C 1.441406 -5.738281 1.140625 -7.367188 1.171875 -9.203125 Z M 13.96875 -9.25 C 13.96875 -10.46875 13.8125 -11.546875 13.5 -12.484375 C 13.1875 -13.429688 12.710938 -14.171875 12.078125 -14.703125 C 11.441406 -15.234375 10.660156 -15.5 9.734375 -15.5 C 8.847656 -15.5 8.054688 -15.28125 7.359375 -14.84375 C 6.671875 -14.40625 6.125 -13.707031 5.71875 -12.75 C 5.3125 -11.789062 5.109375 -10.5625 5.109375 -9.0625 C 5.109375 -7.84375 5.269531 -6.742188 5.59375 -5.765625 C 5.925781 -4.796875 6.425781 -4.03125 7.09375 -3.46875 C 7.757812 -2.914062 8.578125 -2.640625 9.546875 -2.640625 C 10.941406 -2.640625 12.023438 -3.1875 12.796875 -4.28125 C 13.578125 -5.375 13.96875 -7.03125 13.96875 -9.25 Z M 13.96875 -9.25 "/></g></g></g><g fill="#ffffff" fill-opacity="1"><g transform="translate(147.983007, 251.697259)"><g><path d="M 1.171875 -9.203125 C 1.210938 -11.242188 1.601562 -12.9375 2.34375 -14.28125 C 3.082031 -15.632812 4.085938 -16.644531 5.359375 -17.3125 C 6.640625 -17.988281 8.128906 -18.351562 9.828125 -18.40625 C 11.472656 -18.445312 12.910156 -18.082031 14.140625 -17.3125 C 15.378906 -16.550781 16.320312 -15.460938 16.96875 -14.046875 C 17.625 -12.628906 17.9375 -10.988281 17.90625 -9.125 C 17.863281 -7.050781 17.472656 -5.316406 16.734375 -3.921875 C 16.003906 -2.535156 15 -1.503906 13.71875 -0.828125 C 12.4375 -0.148438 10.945312 0.1875 9.25 0.1875 C 7.570312 0.1875 6.113281 -0.207031 4.875 -1 C 3.644531 -1.789062 2.710938 -2.894531 2.078125 -4.3125 C 1.441406 -5.738281 1.140625 -7.367188 1.171875 -9.203125 Z M 13.96875 -9.25 C 13.96875 -10.46875 13.8125 -11.546875 13.5 -12.484375 C 13.1875 -13.429688 12.710938 -14.171875 12.078125 -14.703125 C 11.441406 -15.234375 10.660156 -15.5 9.734375 -15.5 C 8.847656 -15.5 8.054688 -15.28125 7.359375 -14.84375 C 6.671875 -14.40625 6.125 -13.707031 5.71875 -12.75 C 5.3125 -11.789062 5.109375 -10.5625 5.109375 -9.0625 C 5.109375 -7.84375 5.269531 -6.742188 5.59375 -5.765625 C 5.925781 -4.796875 6.425781 -4.03125 7.09375 -3.46875 C 7.757812 -2.914062 8.578125 -2.640625 9.546875 -2.640625 C 10.941406 -2.640625 12.023438 -3.1875 12.796875 -4.28125 C 13.578125 -5.375 13.96875 -7.03125 13.96875 -9.25 Z M 13.96875 -9.25 "/></g></g></g><g fill="#ffffff" fill-opacity="1"><g transform="translate(167.057731, 251.697259)"><g><path d="M 4.0625 -18.203125 C 4.3125 -18.203125 4.820312 -18.226562 5.59375 -18.28125 C 6.65625 -18.363281 7.613281 -18.40625 8.46875 -18.40625 C 11.457031 -18.40625 13.691406 -17.644531 15.171875 -16.125 C 16.648438 -14.613281 17.390625 -12.429688 17.390625 -9.578125 C 17.390625 -7.546875 17.019531 -5.796875 16.28125 -4.328125 C 15.539062 -2.859375 14.484375 -1.738281 13.109375 -0.96875 C 11.742188 -0.195312 10.140625 0.1875 8.296875 0.1875 C 7.710938 0.1875 6.859375 0.148438 5.734375 0.078125 C 5.035156 0.0234375 4.488281 0 4.09375 0 L 2.25 0 L 2.25 -18.203125 Z M 8.53125 -2.734375 C 10.039062 -2.742188 11.222656 -3.269531 12.078125 -4.3125 C 12.941406 -5.363281 13.375 -6.984375 13.375 -9.171875 C 13.375 -10.734375 13.179688 -11.976562 12.796875 -12.90625 C 12.421875 -13.84375 11.847656 -14.515625 11.078125 -14.921875 C 10.316406 -15.328125 9.328125 -15.53125 8.109375 -15.53125 C 7.691406 -15.53125 7.175781 -15.488281 6.5625 -15.40625 L 6.09375 -15.359375 L 6.09375 -2.9375 C 6.632812 -2.800781 7.445312 -2.734375 8.53125 -2.734375 Z M 8.53125 -2.734375 "/></g></g></g><g fill="#ffffff" fill-opacity="1"><g transform="translate(185.642134, 251.697259)"><g><path d="M 8.125 -18.203125 L 10.546875 -8.640625 L 11.46875 -4.625 L 12.171875 -8.640625 L 14.359375 -18.203125 L 19.546875 -18.203125 L 21.71875 0 L 18 0 L 17.09375 -9.765625 L 16.765625 -15.34375 L 15.4375 -9.765625 L 12.828125 0.171875 L 9.8125 0.171875 L 6.921875 -9.765625 L 5.578125 -15.34375 L 5.140625 -9.765625 L 4.359375 0 L 0.84375 0.015625 L 2.78125 -18.203125 Z M 8.125 -18.203125 "/></g></g></g><g fill="#ffffff" fill-opacity="1"><g transform="translate(208.19695, 251.697259)"><g><path d="M 11.8125 -3.859375 L 5.125 -3.859375 L 3.90625 0 L -0.171875 0 L 6.546875 -18.40625 L 10.390625 -18.40625 L 17.171875 0 L 13.03125 0 Z M 10.9375 -6.59375 L 8.953125 -12.84375 L 8.453125 -14.71875 L 7.921875 -12.84375 L 5.96875 -6.59375 Z M 10.9375 -6.59375 "/></g></g></g><g fill="#ffffff" fill-opacity="1"><g transform="translate(225.190796, 251.697259)"><g><path d="M 17.125 -18.203125 L 17.125 0 L 13.3125 0 L 6.8125 -10.296875 L 5.390625 -13.203125 L 5.796875 -8.859375 L 5.796875 0 L 2.25 0 L 2.25 -18.203125 L 5.78125 -18.203125 L 12.5625 -7.5 L 13.9375 -4.765625 L 13.59375 -9.15625 L 13.59375 -18.203125 Z M 17.125 -18.203125 "/></g></g></g><g fill="#ffffff" fill-opacity="1"><g transform="translate(244.564498, 251.697259)"><g><path d="M 17.125 -18.203125 L 17.125 0 L 13.3125 0 L 6.8125 -10.296875 L 5.390625 -13.203125 L 5.796875 -8.859375 L 5.796875 0 L 2.25 0 L 2.25 -18.203125 L 5.78125 -18.203125 L 12.5625 -7.5 L 13.9375 -4.765625 L 13.59375 -9.15625 L 13.59375 -18.203125 Z M 17.125 -18.203125 "/></g></g></g><g clip-path="url(#d5c3d54c00)"><path fill="#ffffff" d="M 215.621094 170.523438 L 215.621094 170.519531 M 143.421875 176.488281 L 143.410156 176.484375 L 143.4375 176.484375 L 163.394531 169.046875 L 163.402344 169.035156 L 163.421875 169.039062 L 177.203125 163.902344 L 177.210938 163.898438 L 177.214844 163.886719 L 177.234375 163.890625 L 187.523438 160.054688 L 187.519531 160.046875 L 204.046875 166.203125 L 215.625 170.519531 L 231.632812 176.484375 L 210.792969 184.25 L 209.929688 184.570312 L 197.867188 189.066406 L 187.519531 192.921875 L 175.726562 188.527344 L 165.109375 184.570312 L 162.351562 183.542969 L 143.429688 176.492188 L 143.417969 176.492188 L 143.421875 176.488281 " fill-opacity="1" fill-rule="nonzero"/></g><path fill="#ffffff" d="M 209.929688 186.445312 L 209.929688 195.238281 C 209.929688 195.246094 209.929688 195.253906 209.929688 195.261719 C 209.929688 198.921875 207.445312 202.234375 203.425781 204.640625 C 199.367188 207.074219 193.738281 208.578125 187.519531 208.578125 C 186.71875 208.578125 185.929688 208.554688 185.152344 208.503906 L 185.148438 208.503906 C 179.128906 208.128906 173.816406 206.335938 170.179688 203.695312 C 167.011719 201.398438 165.109375 198.460938 165.109375 195.261719 C 165.109375 195.253906 165.113281 195.246094 165.113281 195.238281 L 165.109375 195.238281 L 165.109375 186.445312 L 187.519531 194.796875 L 209.929688 186.445312 " fill-opacity="1" fill-rule="nonzero"/><g clip-path="url(#90069ac852)"><path fill="#ffffff" d="M 214.261719 206.304688 L 214.273438 206.183594 L 215.003906 198.644531 L 215.035156 198.3125 L 215.382812 194.683594 L 215.089844 194.683594 L 215.089844 190.648438 C 214.683594 190.285156 214.429688 189.757812 214.429688 189.171875 C 214.429688 188.871094 214.496094 188.585938 214.617188 188.332031 C 214.8125 187.917969 215.144531 187.582031 215.558594 187.382812 L 215.558594 182.476562 L 217.316406 181.820312 L 217.316406 187.398438 C 217.964844 187.726562 218.410156 188.394531 218.410156 189.171875 C 218.410156 189.757812 218.152344 190.285156 217.75 190.648438 L 217.75 194.683594 L 217.425781 194.683594 L 217.640625 196.855469 L 217.90625 199.558594 L 218.558594 206.222656 L 218.558594 206.246094 L 218.914062 209.855469 L 219.230469 213.089844 C 219.238281 213.15625 219.238281 213.238281 219.230469 213.308594 C 219.125 214.195312 217.777344 214.863281 216.226562 214.800781 C 214.675781 214.742188 213.503906 213.976562 213.609375 213.089844 L 214.261719 206.304688 " fill-opacity="1" fill-rule="nonzero"/></g></svg>