<svg id="filled_outline" height="512" viewBox="0 0 512 512" width="512" xmlns="http://www.w3.org/2000/svg"><path d="m136.949 336.454 10.853-9.183c8.534-7.221 15.388-16.218 20.084-26.362l8.466-18.289c1.834-3.962 3.279-8.094 4.313-12.336 4.072-16.703 14.38-31.215 28.809-40.562l1.636-1.06 25.269 38.644-27.734 137.571-20.045 1.098-51.002-10.793z" fill="#5292c1"/><path d="m158.044 333.368c7.82 1.805 14.607 6.631 18.88 13.424l5.802 9.223-.64 48.933-44.489-9.766-12.441-50.681 7.901-5.89c7.155-5.333 16.292-7.25 24.987-5.243z" fill="#467ea6"/><path d="m185.862 377.525-18.622-18.359c-5.606-5.527-13.964-7.19-21.259-4.23-8.743 3.548-13.748 12.793-11.938 22.054l3.555 18.193 49.879 10.984z" fill="#f6bb92"/><path d="m227.11 220.661-4.423-4.423c-6.731-6.731-7.776-17.278-2.495-25.199 4.511-6.767 6.918-14.717 6.918-22.85l-.39-21.366 9.48-7.584 25.121 57.353-5.806 36.107z" fill="#5b3719"/><path d="m363.11 432.716-20.936-56.701 8.849-5.494c7.426-6.301 12.336-15.063 13.832-24.686l1.836-11.801 28.226-69.446c5.517-13.574 1.996-29.148-8.825-39.028-6.016-5.493-13.759-8.715-21.895-9.112l-27.83-1.218-50.302 22.389-31.617-27.74-43.337 18.782 8.013 16.238c4.22 8.551 5.282 18.319 3 27.578l-2.384 9.669v150.866z" fill="#5292c1"/><path d="m366.85 333.63-.16.4-1.84 11.8c-1.49 9.63-6.4 18.39-13.83 24.69l-1.334 1.133c-4.411 3.744-9.775 6.19-15.494 7.062-2.068.316-4.15.534-6.239.655l-15.893-17.43 28.92-40.25 2.27.045c9.263.185 17.942 4.559 23.6 11.895z" fill="#467ea6"/><path d="m257.437 215.713 2.462-15.803 48.347-16.59 2.808 17.987-27.93 36.048z" fill="#f6bb92"/><path d="m316.894 194.231 9.625-10.047c2.655-2.771 4.531-6.193 5.441-9.921 1.089-4.461.742-9.152-.991-13.404l-2.189-2.183 1.268-36.025 9.504.416c7.578.281 14.316 4.905 17.303 11.875 1.245 2.905 1.77 6.069 1.529 9.22l-.056.727c-1.551 20.319-7.748 40.01-18.111 57.556l-5.43 7.893z" fill="#c92535"/><path d="m315.11 140.661h3.511c6.824 0 12.286 5.662 12.041 12.481-.173 4.808-3.19 9.053-7.674 10.796l-3.637 1.415-.811 2.883c-3.072 10.924-9.167 20.759-17.581 28.372l-2.609 2.361c-6.576 5.95-15.178 9.161-24.045 8.977-9.922-.207-19.282-4.644-25.723-12.195-6.04-7.081-10.357-15.464-12.614-24.493l-5.455-24.909 60.196-60.67 23.699 40.763z" fill="#f6bb92"/><path d="m288.844 135.573c4.081 0 7.389 3.308 7.389 7.389 0 4.081-3.308 7.389-7.389 7.389-4.081 0-7.389-3.308-7.389-7.389 0-4.081 3.308-7.389 7.389-7.389z" fill="#5b3719"/><path d="m246.095 139.267c4.081 0 7.389 3.308 7.389 7.389 0 4.081-3.308 7.389-7.389 7.389-4.081 0-7.389-3.308-7.389-7.389.001-4.081 3.309-7.389 7.389-7.389z" fill="#5b3719"/><path d="m324.573 432.973h-136.645c-9.16 0-16.586-7.426-16.586-16.586v-5.977h169.816v5.977c.001 9.16-7.425 16.586-16.585 16.586z" fill="#aeadaa"/><path d="m423.915 433.717c-18.039 0-32.663-14.624-32.663-32.663v-24.627h65.326v24.627c0 18.039-14.624 32.663-32.663 32.663z" fill="#e6e5e0"/><path d="m455.268 433.137h-60.123c-9.408 0-17.035-7.627-17.035-17.035h94.193c0 9.408-7.627 17.035-17.035 17.035z" fill="#d6d5d0"/><path d="m40.049 300.661h32v64h-32z" fill="#5292c1"/><path d="m72.049 284.661h32v80h-32z" fill="#d6d5d0"/><path d="m104.049 300.661h32v64h-32z" fill="#c92535"/><path d="m254.405 209.826-11.862 18.078c-2.858 4.288-2.293 9.997 1.351 13.641 5.376 5.376 14.091 5.376 19.467 0l14.267-14.267z" fill="#467ea6"/><path d="m298.59 218.164 10.129 11.251c2.858 4.288 2.293 9.997-1.351 13.64-5.376 5.376-14.091 5.376-19.467 0l-14.267-14.267z" fill="#467ea6"/><path d="m439.427 147.021c16.829-5.244 30.492-17.818 36.743-34.3.046-.122.092-.243.137-.365 10.075-27.009-4.211-57.143-31.837-66.267-25.541-8.436-53.65 4.811-63.44 29.865-10.101 25.85 2.312 54.777 27.504 65.49l-5.458 16.904z" fill="#ecab2c"/><circle cx="428.514" cy="75.742" fill="#d78e0c" r="7.508"/><path d="m423.027 95.666h12.994v25.122h-12.994z" fill="#d78e0c"/><path d="m291.11 100.661-1.004 4.017c-4.501 18.006-15.553 33.688-30.996 43.983v-24l-1.967 2.951c-9.095 13.643-22.478 23.864-38.033 29.049l-1.466-8.796c-4.226-25.356.431-51.393 13.185-73.712 7.772-13.601 21.247-22.986 36.698-25.562 14.973-2.495 30.289 1.658 41.95 11.375 18.418 15.349 27.568 39.145 24.178 62.88l-3.788 26.192-10.283-5.838c-2.969-1.686-5.698-3.764-8.112-6.178-2.889-2.889-5.294-6.225-7.121-9.88z" fill="#7a4922"/><path d="m316.894 194.231 16.969 6.788 8.162 16.255-2.007 22.476 5.139 91.132c.479 8.486-6.274 15.629-14.773 15.629-8.192 0-14.825-6.657-14.796-14.849l.349-97.933-14.881-23.095z" fill="#f6bb92"/><path d="m341.97 274.33c-3.89 1.05-8.37 1.64-13.2 1.64-4.74 0-9.13-.56-12.98-1.58l.03-8.33c3.34 1.12 7.72 1.91 12.95 1.91 5.12 0 9.43-.76 12.74-1.84z" fill="#f6bb92"/><path d="m301.056 210.634-7.582 7.363-11.449-2.216-14.773 19.574 8.997 7.047c4.921 3.854 11.202 5.534 17.389 4.65 5.371-.767 10.296-3.414 13.901-7.469l7.278-8.188z" fill="#c92535"/><path d="m328.69 410.441h-146.66v-111.87c0-7.961 6.453-14.414 14.414-14.414h117.832c7.961 0 14.414 6.453 14.414 14.414z" fill="#d6d5d0"/><circle cx="255.715" cy="351.576" fill="#e6e5e0" r="12.212"/><path d="m24.049 364.661h120v72h-120z" fill="#d78e0c"/><path d="m147.11 436.723-123.017-.932-.072-40.028h96.12c14.895 0 26.969 12.075 26.969 26.969z" fill="#c92535"/><path d="m128.959 436.908v-16.248c0-5.768-4.676-10.444-10.444-10.444h-94.471l.004 26.445z" fill="#d6d5d0"/><path d="m19.206 432.681h473.804v40.811h-473.804z" fill="#5b3719"/><path d="m269.312 188.127c.127 0 .256-.006.385-.019l1.31-.124c7.112-.678 13.916-3.27 19.675-7.493 1.781-1.307 2.166-3.81.86-5.592-1.306-1.78-3.81-2.166-5.591-.859-4.596 3.371-10.026 5.439-15.703 5.98l-1.31.125c-2.199.209-3.812 2.162-3.602 4.361.197 2.071 1.938 3.621 3.976 3.621z"/><path d="m288.844 150.35c4.081 0 7.389-3.308 7.389-7.389s-3.308-7.389-7.389-7.389c-4.081 0-7.389 3.308-7.389 7.389s3.308 7.389 7.389 7.389z"/><path d="m255.715 367.788c8.939 0 16.212-7.272 16.212-16.212s-7.273-16.213-16.212-16.213-16.212 7.273-16.212 16.213 7.273 16.212 16.212 16.212zm0-24.425c4.528 0 8.212 3.685 8.212 8.213s-3.684 8.212-8.212 8.212-8.212-3.684-8.212-8.212 3.684-8.213 8.212-8.213z"/><path d="m377.304 74.497c-5.253 13.443-5.054 28.158.559 41.435 5.11 12.086 14.187 21.788 25.778 27.646l-4.372 13.54c-.459 1.422-.087 2.981.964 4.043.763.771 1.791 1.187 2.843 1.187.397 0 .798-.06 1.189-.181l36.351-11.327c18.017-5.613 32.706-19.333 39.293-36.701l.145-.385c5.273-14.137 4.582-29.415-1.947-43.021-6.525-13.6-18.026-23.701-32.384-28.442-27.73-9.161-57.784 4.989-68.419 32.206zm93.592-.303c5.579 11.627 6.17 24.684 1.663 36.767l-.128.341c-5.722 15.087-18.504 27.012-34.193 31.899l-28.983 9.032 3.087-9.561c.636-1.971-.336-4.101-2.241-4.91-23.526-10.006-34.658-36.516-25.344-60.354 7.218-18.473 24.901-29.899 43.744-29.899 4.881 0 9.841.768 14.716 2.377 12.272 4.054 22.102 12.687 27.679 24.308z"/><path d="m428.514 64.233c-6.345 0-11.508 5.162-11.508 11.508s5.163 11.509 11.508 11.509 11.508-5.163 11.508-11.509-5.163-11.508-11.508-11.508zm0 15.017c-1.934 0-3.508-1.574-3.508-3.509s1.574-3.508 3.508-3.508 3.508 1.573 3.508 3.508-1.574 3.509-3.508 3.509z"/><path d="m436.021 91.666h-12.994c-2.209 0-4 1.791-4 4v25.123c0 2.209 1.791 4 4 4h12.994c2.209 0 4-1.791 4-4v-25.123c0-2.209-1.791-4-4-4zm-4 25.123h-4.994v-17.123h4.994z"/><path d="m493.01 428h-21.994c3.279-3.711 5.287-8.569 5.287-13.898 0-2.209-1.791-4-4-4h-13.429c.497-1.571.898-3.167 1.176-4.793h5.208c7.528 0 13.583-5.895 13.787-13.419.205-7.569-5.786-13.92-13.354-14.157l-5.113-.161v-3.146c0-2.209-1.791-4-4-4h-65.326c-2.209 0-4 1.791-4 4v24.628c0 3.794.575 7.493 1.7 11.048h-10.842c-2.209 0-4 1.791-4 4 0 5.33 2.009 10.188 5.288 13.898h-15.009l-16.785-49.333 6.007-5.097c8.156-6.92 13.553-16.552 15.197-27.121l1.764-11.341 28.051-69.015c6.119-15.055 2.167-32.531-9.834-43.488-6.688-6.106-15.353-9.712-24.484-10.156l-20.503-.554-2.083-4.149c.038-.057.08-.109.115-.168l1.831-3.1c10.615-17.973 17.065-38.474 18.654-59.285l.056-.728c.289-3.778-.348-7.616-1.84-11.102-3.578-8.348-11.755-13.959-20.832-14.296l-1.594-.059c1.971-23.751-7.581-46.708-26.07-62.116-12.568-10.472-29.03-14.938-45.168-12.247-16.708 2.784-31.109 12.815-39.514 27.522-13.171 23.05-18.021 50.167-13.657 76.354l1.466 8.796c.192 1.154.88 2.166 1.882 2.77.63.379 1.344.573 2.063.573.425 0 .853-.067 1.265-.205.919-.306 1.83-.633 2.735-.974v8.707c0 7.367-2.16 14.501-6.247 20.631-6.316 9.475-5.056 22.195 2.995 30.246l1.286 1.286-11.47 4.575c-.012.005-.025.01-.037.015l-.01.004c-.04.016-.074.042-.114.06-.197.086-.392.177-.578.298l-1.637 1.06c-15.35 9.944-26.188 25.205-30.52 42.973-.97 3.979-2.334 7.882-4.057 11.603l-8.466 18.289c-4.421 9.551-11.004 18.191-19.039 24.989l-5.168 4.374v-27.929c0-2.209-1.791-4-4-4h-28v-12c0-2.209-1.791-4-4-4h-32c-2.209 0-4 1.791-4 4v12h-28c-2.209 0-4 1.791-4 4v60h-12c-2.209 0-4 1.791-4 4v63.338h-.842c-2.209 0-4 1.791-4 4v41.492c0 2.209 1.791 4 4 4h473.803c2.209 0 4-1.791 4-4v-41.492c0-2.209-1.791-4-4-4zm-32.432-42.425 4.862.153c3.178.1 5.694 2.767 5.608 5.945-.085 3.159-2.628 5.635-5.79 5.635h-4.68zm-65.327-7.149h57.326v20.628c0 3.849-.745 7.557-2.209 11.048h-52.901c-1.465-3.498-2.216-7.209-2.216-11.048zm72.424 39.676c-1.692 5.237-6.614 9.035-12.407 9.035h-60.123c-5.793 0-10.715-3.798-12.408-9.035zm-111.737 9.898h-14.389c2.292-3.352 3.609-7.375 3.609-11.612v-5.978c0-2.209-1.791-4-4-4h-8.469v-22.225l7.661-1.999zm-184.986 0h-22.903v-26.981l22.22 5.555c-1.684.471-2.927 2.001-2.927 3.836v5.978c0 4.237 1.317 8.26 3.61 11.612zm-22.872-35.22c-.01-.002-.021-.002-.031-.004v-28.115c0-2.209-1.791-4-4-4h-1.623l1.216-1.216c1.811-1.812 4.219-2.809 6.78-2.809 2.034 0 3.98.632 5.628 1.826l21.981 15.936v25.869zm3.172-52.573c3.448.046 6.747 1.138 9.541 3.156l2.389 1.726c.035.028.062.062.098.088l14.75 10.779v8.561l-17.285-12.531c-3.022-2.191-6.592-3.35-10.324-3.35-3.786 0-7.378 1.206-10.373 3.406v-11.987zm24.09 74.203h161.816v1.978c0 5.086-3.09 9.67-7.747 11.612h-146.322c-4.656-1.942-7.747-6.527-7.747-11.612zm138.934-126.253c5.742 0 10.414 4.672 10.414 10.414v71.344l-9.662-10.661c-1.483-1.637-4.013-1.762-5.65-.277-1.637 1.483-1.761 4.013-.278 5.65l15.589 17.202v23.613h-138.659v-106.87c0-5.742 4.671-10.414 10.414-10.414h117.832zm-2.447-24.074c-2.281-1.202-3.531-2.494-3.531-3.463 0-.794 1.13-2.149 3.556-3.449zm-50.232-49.238.704-5.047c3.8 1.322 7.817 2.061 11.919 2.147.273.006.546.009.819.009 9.631 0 18.833-3.541 25.993-10.019l2.61-2.361c.905-.819 1.777-1.667 2.631-2.532l.378 2.04-8.431 8.732-6.034 5.859-9.4-1.819c-1.499-.295-3.034.299-3.953 1.518l-6.509 8.625zm7.235 14.438-10.817 10.817c-1.844 1.845-4.296 2.86-6.905 2.86s-5.061-1.016-6.905-2.86c-2.288-2.288-2.646-5.901-.851-8.594l8.865-13.298zm-17.694-88.017c1.375-1.392 2.704-2.831 3.972-4.324v11.72c0 .04.007.079.008.119.001.024-.005.047-.004.071l.661 13.951c.152 3.188 1.502 6.162 3.804 8.377 2.327 2.236 5.423 3.473 8.622 3.473.336 0 .675-.014 1.013-.042l4.519-.369c2.202-.18 3.841-2.11 3.661-4.312s-2.114-3.854-4.312-3.66l-4.519.369c-1.269.104-2.521-.343-3.438-1.224-.821-.791-1.304-1.854-1.358-2.991l-.557-11.744c13.576-9.629 23.683-23.216 28.981-38.91l8.582 17.164c2.022 4.045 4.67 7.719 7.87 10.919.276.276.579.594.895.925.797.835 1.688 1.759 2.584 2.52.733.831 1.793 1.365 2.988 1.365h3.511c2.205 0 4.262.874 5.792 2.461 1.531 1.586 2.33 3.674 2.251 5.877-.115 3.215-2.127 6.046-5.125 7.212l-3.637 1.414c-1.172.456-2.061 1.436-2.401 2.646l-.811 2.883c-2.872 10.212-8.548 19.372-16.414 26.489l-2.61 2.361c-5.843 5.286-13.393 8.104-21.278 7.943-8.772-.184-17.069-4.116-22.763-10.792-5.608-6.575-9.681-14.482-11.777-22.866l-4.215-16.859c1.454-.87 2.879-1.786 4.273-2.748 1.318 2.022 3.596 3.362 6.19 3.362 4.081 0 7.389-3.308 7.389-7.389-.001-2.13-.907-4.043-2.347-5.391zm77.082 24.296c.517 2.558.476 5.207-.146 7.753-.743 3.041-2.279 5.843-4.443 8.102l-9.625 10.047c-.001 0-.001.001-.002.002l-.528.547-.539-2.911c4.239-5.974 7.447-12.651 9.452-19.781l.271-.961 1.777-.691c1.375-.536 2.639-1.253 3.783-2.107zm-50.282 65.927c.847-.847 1.27-2.029 1.152-3.223-.049-.494-.208-.958-.426-1.392l5.05-6.692 9 1.742c1.283.247 2.609-.146 3.547-1.058l4.078-3.96 9.249 14.353-5.038 5.667c-2.972 3.344-7.048 5.533-11.477 6.166-5.082.728-10.316-.674-14.358-3.84l-4.789-3.751zm28.198-20.356 11.769-12.19 13.065 5.227 6.971 13.883-1.906 21.342c-.017.193-.02.387-.009.581l1.5 26.597c-2.646.54-5.703.886-9.146.886-3.187 0-6.052-.292-8.559-.764l.117-32.95c.003-.773-.219-1.531-.638-2.182zm13.634 69.862.022-6.159c2.615.392 5.464.621 8.588.621 3.527 0 6.726-.277 9.604-.771l3.182 56.42c.169 2.994-.873 5.845-2.933 8.024-1.52 1.608-3.437 2.678-5.542 3.132v-43.691c-.001-8.24-5.443-15.233-12.921-17.576zm24.275 63.631c3.587-3.795 5.4-8.757 5.106-13.971l-.042-.754 6.378 3.001c.55.259 1.13.382 1.701.382 1.501 0 2.94-.85 3.622-2.298.941-1.999.083-4.382-1.916-5.322l-10.094-4.75c-.066-.031-.134-.044-.201-.071l-2.727-48.355c6.982-2.851 10.589-7.372 10.589-11.868 0-5.229-4.33-9.644-11.953-12.315l-.479-8.491 1.773-19.861 18.199.49c7.189.351 14.077 3.217 19.393 8.07 9.539 8.71 12.681 22.602 7.817 34.568l-28.227 69.445c-.117.286-.199.586-.247.892l-1.835 11.801c-1.349 8.671-5.777 16.573-12.468 22.251l-7.387 6.267-8.358 2.18v-25.56c4.333-.522 8.304-2.502 11.356-5.731zm.966-87.398c2.347 1.276 3.45 2.597 3.45 3.392 0 .905-1.075 2.094-3.076 3.226zm-11.163-109.558 3.213-20.695 2.343.087c6.002.223 11.409 3.934 13.775 9.453.987 2.304 1.408 4.843 1.217 7.341l-.056.728c-1.462 19.149-7.306 38.011-16.896 54.653l-.007-.014c-.438-.873-1.182-1.556-2.089-1.919l-11.466-4.587 5.525-5.767c3.137-3.273 5.363-7.333 6.438-11.74 1.083-4.436.968-9.093-.332-13.469-.372-1.253-1.014-2.418-1.863-3.431.59-1.584.944-3.274 1.007-5.025.071-1.94-.22-3.83-.809-5.615zm-111.589 3.555-.669-4.017c-4.063-24.375.452-49.615 12.712-71.07 7.206-12.61 19.556-21.213 33.883-23.601 13.833-2.309 27.954 1.521 38.731 10.503 17.481 14.568 25.997 36.715 22.786 59.192l-2.617 16.856c-2.515-1.571-5.414-2.427-8.464-2.427h-1.913c-.445-.431-.929-.933-1.381-1.406-.363-.38-.71-.743-1.026-1.06-2.591-2.591-4.734-5.565-6.372-8.841l-13.241-26.482c-.749-1.497-2.351-2.363-4.014-2.188-1.664.184-3.038 1.383-3.444 3.007l-1.003 4.017c-3.638 14.551-11.739 27.436-23.116 36.969v-16.016c0-1.763-1.154-3.317-2.841-3.828-1.687-.513-3.51.143-4.487 1.609l-1.966 2.951c-7.688 11.53-18.776 20.575-31.558 25.832zm1.261 42.033c4.943-7.413 7.563-16.035 7.588-24.943l.978 3.913c2.394 9.577 7.045 18.608 13.451 26.118 2.658 3.116 5.767 5.754 9.189 7.857l-.518 3.715-.879-.586c-1.268-.847-2.834-.856-4.091-.188l-20.006 7.981-3.716-3.716c-5.365-5.364-6.204-13.839-1.996-20.151zm17.091 27.941-3.913 5.869c-3.902 5.854-3.124 13.713 1.85 18.688 3.355 3.355 7.816 5.204 12.562 5.204 4.745 0 9.207-1.849 12.562-5.204l4.555-4.555 5.555 4.351c4.753 3.723 10.663 5.728 16.654 5.728 1.255 0 2.515-.088 3.768-.267 6.299-.9 12.097-4.016 16.325-8.771l1.383-1.556-.028 7.75c-7.389 2.686-11.587 7.059-11.587 12.185 0 4.689 3.917 9.407 11.5 12.226l-.026 7.311h-87.424l1.658-6.724c2.505-10.159 1.334-20.922-3.296-30.305l-6.098-12.356zm-69.095 81.39 8.466-18.29c1.939-4.19 3.477-8.587 4.569-13.068 3.644-14.945 12.48-27.886 24.987-36.714l5.997 12.154c3.797 7.693 4.757 16.519 2.703 24.85l-2.13 8.638h-19.665c-10.153 0-18.414 8.261-18.414 18.414v47.376l-12.553-9.069c-4.134-2.987-9.016-4.603-14.117-4.672l-3.15-.042 2.175-1.84c8.918-7.547 16.224-17.138 21.132-27.737zm-63.467 2.072h24v30.859c-.017.142-.046.28-.048.426-.003.19.025.372.048.554v24.16h-8v-36c0-2.209-1.791-4-4-4s-4 1.791-4 4v36h-8zm-32-16h24v72h-8v-44c0-2.209-1.791-4-4-4s-4 1.791-4 4v44h-8zm-32 16h24v56h-8v-36c0-2.209-1.791-4-4-4s-4 1.791-4 4v36h-8zm-16 64h112v30.355c-5.482-4.606-12.479-7.253-19.908-7.253h-92.092zm0 31.103h92.092c8.261 0 15.807 4.402 19.908 11.531v16.705h-7.09v-7.34c0-7.964-6.479-14.443-14.444-14.443h-90.466zm0 14.453h90.466c3.553 0 6.444 2.891 6.444 6.443v7.34h-96.91zm460.961 55.275h-465.803v-33.492h465.803z"/></svg>