<svg id="Layer_1" height="512" viewBox="0 0 64 64" width="512" xmlns="http://www.w3.org/2000/svg" data-name="Layer 1"><circle cx="32" cy="42" fill="#f78c8c" r="7"/><path d="m24 58v-2a3 3 0 0 1 3-3h10a3 3 0 0 1 3 3v2" fill="#f78c8c"/><circle cx="54" cy="42" fill="#fff" r="7"/><path d="m46 58v-2a3 3 0 0 1 3-3h10a3 3 0 0 1 3 3v2" fill="#fff"/><circle cx="21" cy="13" fill="#f78c8c" r="7"/><path d="m13 29v-2a3 3 0 0 1 3-3h10a3 3 0 0 1 3 3v2" fill="#f78c8c"/><circle cx="43" cy="13" fill="#fff" r="7"/><path d="m35 29v-2a3 3 0 0 1 3-3h10a3 3 0 0 1 3 3v2" fill="#fff"/><circle cx="10" cy="42" fill="#fff" r="7"/><path d="m2 58v-2a3 3 0 0 1 3-3h10a3 3 0 0 1 3 3v2" fill="#fff"/><path d="m38.96 41.28a6.99221 6.99221 0 0 0 -13.93.21 5 5 0 1 1 0 1.02 6.99221 6.99221 0 0 0 13.93.21 6.32024 6.32024 0 0 0 0-1.44z" opacity=".1"/><path d="m40 56v2h-4v-2a1.003 1.003 0 0 0 -1-1h-10a1.003 1.003 0 0 0 -1 1 2.996 2.996 0 0 1 3-3h10a2.98787 2.98787 0 0 1 2.98 2.69 1.61351 1.61351 0 0 1 .02.31z" opacity=".1"/><path d="m60.96 41.28a6.99221 6.99221 0 0 0 -13.93.21 5 5 0 1 1 0 1.02 6.99221 6.99221 0 0 0 13.93.21 6.32024 6.32024 0 0 0 0-1.44z" opacity=".1"/><path d="m62 56v2h-4v-2a1.003 1.003 0 0 0 -1-1h-10a1.003 1.003 0 0 0 -1 1 2.996 2.996 0 0 1 3-3h10a2.98787 2.98787 0 0 1 2.98 2.69 1.61351 1.61351 0 0 1 .02.31z" opacity=".1"/><path d="m27.96 12.28a6.99221 6.99221 0 0 0 -13.93.21 5 5 0 1 1 0 1.02 6.993 6.993 0 1 0 13.93-1.23z" opacity=".1"/><path d="m29 27v2h-4v-2a1.003 1.003 0 0 0 -1-1h-10a1.003 1.003 0 0 0 -1 1 2.996 2.996 0 0 1 3-3h10a2.98787 2.98787 0 0 1 2.98 2.69 1.61351 1.61351 0 0 1 .02.31z" opacity=".1"/><path d="m49.96 12.28a6.99221 6.99221 0 0 0 -13.93.21 5 5 0 1 1 0 1.02 6.993 6.993 0 1 0 13.93-1.23z" opacity=".1"/><path d="m51 27v2h-4v-2a1.003 1.003 0 0 0 -1-1h-10a1.003 1.003 0 0 0 -1 1 2.996 2.996 0 0 1 3-3h10a2.98787 2.98787 0 0 1 2.98 2.69 1.61351 1.61351 0 0 1 .02.31z" opacity=".1"/><path d="m16.96 41.28a6.99221 6.99221 0 0 0 -13.93.21 5 5 0 1 1 0 1.02 6.99221 6.99221 0 0 0 13.93.21 6.32024 6.32024 0 0 0 0-1.44z" opacity=".1"/><path d="m18 56v2h-4v-2a1.003 1.003 0 0 0 -1-1h-10a1.003 1.003 0 0 0 -1 1 2.996 2.996 0 0 1 3-3h10a2.98787 2.98787 0 0 1 2.98 2.69 1.61351 1.61351 0 0 1 .02.31z" opacity=".1"/><circle cx="19" cy="32" opacity=".1" r="2"/><g fill="#4d4d4d"><path d="m41 42a9 9 0 1 0 -9 9 9.01047 9.01047 0 0 0 9-9zm-9 5a5 5 0 1 1 5-5 5.00588 5.00588 0 0 1 -5 5z"/><path d="m37 51h-10a5.00588 5.00588 0 0 0 -5 5v2a2 2 0 0 0 4 0v-2a1.0013 1.0013 0 0 1 1-1h10a1.0013 1.0013 0 0 1 1 1v2a2 2 0 0 0 4 0v-2a5.00588 5.00588 0 0 0 -5-5z"/><path d="m63 42a9 9 0 1 0 -9 9 9.01047 9.01047 0 0 0 9-9zm-9 5a5 5 0 1 1 5-5 5.00588 5.00588 0 0 1 -5 5z"/><path d="m59 51h-10a5.00588 5.00588 0 0 0 -5 5v2a2 2 0 0 0 4 0v-2a1.0013 1.0013 0 0 1 1-1h10a1.0013 1.0013 0 0 1 1 1v2a2 2 0 0 0 4 0v-2a5.00588 5.00588 0 0 0 -5-5z"/><path d="m30 13a9 9 0 1 0 -9 9 9.01047 9.01047 0 0 0 9-9zm-9 5a5 5 0 1 1 5-5 5.00588 5.00588 0 0 1 -5 5z"/><path d="m13 31a2.0001 2.0001 0 0 0 2-2v-2a1.0013 1.0013 0 0 1 1-1h10a1.0013 1.0013 0 0 1 1 1v2a2 2 0 0 0 4 0v-2a5.00588 5.00588 0 0 0 -5-5h-10a5.00588 5.00588 0 0 0 -5 5v2a2.0001 2.0001 0 0 0 2 2z"/><path d="m52 13a9 9 0 1 0 -9 9 9.01047 9.01047 0 0 0 9-9zm-9 5a5 5 0 1 1 5-5 5.00588 5.00588 0 0 1 -5 5z"/><path d="m35 31a2.0001 2.0001 0 0 0 2-2v-2a1.0013 1.0013 0 0 1 1-1h10a1.0013 1.0013 0 0 1 1 1v2a2 2 0 0 0 4 0v-2a5.00588 5.00588 0 0 0 -5-5h-10a5.00588 5.00588 0 0 0 -5 5v2a2.0001 2.0001 0 0 0 2 2z"/><path d="m19 42a9 9 0 1 0 -9 9 9.01047 9.01047 0 0 0 9-9zm-9 5a5 5 0 1 1 5-5 5.00588 5.00588 0 0 1 -5 5z"/><path d="m15 51h-10a5.00588 5.00588 0 0 0 -5 5v2a2 2 0 0 0 4 0v-2a1.0013 1.0013 0 0 1 1-1h10a1.0013 1.0013 0 0 1 1 1v2a2 2 0 0 0 4 0v-2a5.00588 5.00588 0 0 0 -5-5z"/></g><circle cx="21" cy="32" fill="#f78c8c" r="2"/></svg>