<svg id="Capa_1" enable-background="new 0 0 512 512" height="512" viewBox="0 0 512 512" width="512" xmlns="http://www.w3.org/2000/svg"><g><g><g><g><g fill="#b5adb6"><path d="m384.127 226.334h-21.834v-145.64h21.834c5.69 0 10.302 4.612 10.302 10.302v125.036c0 5.69-4.612 10.302-10.302 10.302z"/><path d="m70.178 141.952h21.834v-61.258h-21.834c-5.69 0-10.302 4.612-10.302 10.302v40.654c0 5.689 4.613 10.302 10.302 10.302z"/><path d="m70.178 226.334h21.834v-61.257h-21.834c-5.69 0-10.302 4.612-10.302 10.302v40.654c0 5.689 4.613 10.301 10.302 10.301z"/></g><path d="m339.67 512h-225.028c-17.069 0-30.905-13.837-30.905-30.905v-450.19c-.001-17.068 13.836-30.905 30.905-30.905h225.028c17.069 0 30.905 13.837 30.905 30.905v450.189c0 17.069-13.836 30.906-30.905 30.906z" fill="#7a6e79"/><path d="m370.574 30.905v450.189c0 17.07-13.835 30.905-30.905 30.905h-35.098c17.07 0 30.905-13.835 30.905-30.905v-450.189c0-17.07-13.835-30.905-30.905-30.905h35.098c17.07 0 30.905 13.835 30.905 30.905z" fill="#685e67"/><path d="m344.82 30.905v450.189c0 2.843-2.308 5.151-5.151 5.151h-225.022c-2.843 0-5.151-2.308-5.151-5.151v-450.189c0-2.843 2.308-5.151 5.151-5.151h56.742c2.112 0 4.018 1.288 4.79 3.255l5.893 14.938c1.556 3.935 5.357 6.521 9.581 6.521h71c4.224 0 8.025-2.586 9.581-6.521l5.893-14.938c.773-1.968 2.679-3.255 4.79-3.255h56.753c2.842.001 5.15 2.308 5.15 5.151z" fill="#107295"/><path d="m344.82 138.003v135.479h-93.88c-5.687 0-10.302-4.615-10.302-10.302v-114.875c0-5.687 4.615-10.302 10.302-10.302z" fill="#0d5f7f"/><path d="m344.82 30.905v450.189c0 2.843-2.308 5.151-5.151 5.151h-29.432c2.843 0 5.151-2.308 5.151-5.151v-450.189c0-2.843-2.308-5.151-5.151-5.151h29.432c2.843.001 5.151 2.308 5.151 5.151z" fill="#0d5f7f"/><g fill="#433f43"><path d="m224.912 33.481h-20.659c-4.268 0-7.726-3.459-7.726-7.726s3.459-7.726 7.726-7.726h20.659c4.268 0 7.726 3.459 7.726 7.726s-3.458 7.726-7.726 7.726z"/><path d="m250.051 33.534c-4.268 0-7.726-3.459-7.726-7.726v-.107c0-4.267 3.459-7.726 7.726-7.726 4.268 0 7.726 3.459 7.726 7.726v.107c.001 4.267-3.458 7.726-7.726 7.726z"/></g></g><path d="m266.88 460.504h-79.455c-4.268 0-7.726-3.459-7.726-7.726s3.459-7.726 7.726-7.726h79.455c4.268 0 7.726 3.459 7.726 7.726.001 4.267-3.458 7.726-7.726 7.726z" fill="#64e0c4"/></g></g><g><path d="m441.82 248.86h-190.88c-5.69 0-10.302-4.612-10.302-10.302v-114.873c0-5.69 4.612-10.302 10.302-10.302h190.88c5.69 0 10.302 4.612 10.302 10.302v114.873c-.001 5.689-4.613 10.302-10.302 10.302z" fill="#64e0c4"/><path d="m452.124 123.684v114.875c0 5.687-4.615 10.302-10.302 10.302h-27.382c5.687 0 10.302-4.615 10.302-10.302v-114.875c0-5.687-4.615-10.302-10.302-10.302h27.382c5.686 0 10.302 4.615 10.302 10.302z" fill="#27d1b3"/></g><g fill="#0d5f7f"><g><path d="m308.468 214.462c-1.913 0-3.83-.706-5.325-2.129l-26.918-25.615c-1.533-1.458-2.4-3.481-2.4-5.597s.867-4.139 2.4-5.597l26.918-25.614c3.091-2.941 7.981-2.821 10.924.271 2.942 3.091 2.82 7.981-.272 10.923l-21.035 20.017 21.035 20.018c3.092 2.942 3.212 7.832.272 10.924-1.52 1.595-3.558 2.399-5.599 2.399z"/><path d="m384.292 214.462c-2.041 0-4.079-.804-5.598-2.4-2.942-3.091-2.821-7.982.271-10.924l21.034-20.018-21.034-20.017c-3.092-2.942-3.212-7.832-.271-10.924 2.942-3.091 7.833-3.212 10.923-.271l26.917 25.614c1.533 1.458 2.4 3.481 2.4 5.597s-.867 4.139-2.4 5.597l-26.917 25.615c-1.495 1.425-3.412 2.131-5.325 2.131z"/></g><path d="m336.143 214.464c-.955 0-1.925-.178-2.865-.553-3.962-1.583-5.891-6.079-4.308-10.042l20.469-51.229c1.585-3.963 6.081-5.89 10.042-4.308 3.962 1.584 5.891 6.079 4.308 10.042l-20.469 51.229c-1.208 3.022-4.111 4.861-7.177 4.861z"/></g><g><g fill="#64b9fc"><path d="m148.53 293.05c-4.268 0-7.726-3.459-7.726-7.726v-.107c0-4.267 3.459-7.726 7.726-7.726s7.726 3.459 7.726 7.726v.107c.001 4.267-3.458 7.726-7.726 7.726z"/><path d="m213.175 293.05h-36.076c-4.268 0-7.726-3.459-7.726-7.726s3.459-7.726 7.726-7.726h36.076c4.268 0 7.726 3.459 7.726 7.726s-3.458 7.726-7.726 7.726z"/></g><g fill="#27d1b3"><path d="m148.53 325.905c-4.268 0-7.726-3.459-7.726-7.726v-.107c0-4.267 3.459-7.726 7.726-7.726s7.726 3.459 7.726 7.726v.107c.001 4.267-3.458 7.726-7.726 7.726z"/><path d="m282.626 325.905h-105.527c-4.268 0-7.726-3.459-7.726-7.726s3.459-7.726 7.726-7.726h105.527c4.268 0 7.726 3.459 7.726 7.726s-3.459 7.726-7.726 7.726z"/></g><g fill="#a3e440"><g><path d="m148.53 358.761c-4.268 0-7.726-3.459-7.726-7.726v-.107c0-4.267 3.459-7.726 7.726-7.726s7.726 3.459 7.726 7.726v.107c.001 4.266-3.458 7.726-7.726 7.726z"/><path d="m305.776 358.761h-128.677c-4.268 0-7.726-3.459-7.726-7.726s3.459-7.726 7.726-7.726h128.677c4.268 0 7.726 3.459 7.726 7.726 0 4.266-3.459 7.726-7.726 7.726z"/></g><g><path d="m148.53 391.616c-4.268 0-7.726-3.459-7.726-7.726v-.107c0-4.267 3.459-7.726 7.726-7.726s7.726 3.459 7.726 7.726v.107c.001 4.266-3.458 7.726-7.726 7.726z"/><path d="m305.776 391.616h-128.677c-4.268 0-7.726-3.459-7.726-7.726s3.459-7.726 7.726-7.726h128.677c4.268 0 7.726 3.459 7.726 7.726 0 4.266-3.459 7.726-7.726 7.726z"/></g></g></g><g><path d="m209.587 239.592h-60.677c-4.268 0-7.726-3.459-7.726-7.726s3.459-7.726 7.726-7.726h60.676c4.268 0 7.726 3.459 7.726 7.726s-3.458 7.726-7.725 7.726z" fill="#fcc16d"/><path d="m209.587 206.736h-60.677c-4.268 0-7.726-3.459-7.726-7.726s3.459-7.726 7.726-7.726h60.676c4.268 0 7.726 3.459 7.726 7.726s-3.458 7.726-7.725 7.726z" fill="#fcc16d"/><g fill="#fc5a95"><path d="m209.587 173.881h-60.677c-4.268 0-7.726-3.459-7.726-7.726s3.459-7.726 7.726-7.726h60.676c4.268 0 7.726 3.459 7.726 7.726.001 4.267-3.458 7.726-7.725 7.726z"/><path d="m209.587 141.026h-60.677c-4.268 0-7.726-3.459-7.726-7.726s3.459-7.726 7.726-7.726h60.676c4.268 0 7.726 3.459 7.726 7.726.001 4.267-3.458 7.726-7.725 7.726z"/></g></g></g></svg>