<?xml version="1.0" encoding="UTF-8" standalone="no"?>
<!-- Created with Inkscape (http://www.inkscape.org/) -->

<svg
   version="1.1"
   id="svg2604"
   xml:space="preserve"
   width="682.66669"
   height="682.66669"
   viewBox="0 0 682.66669 682.66669"
   xmlns="http://www.w3.org/2000/svg"
   xmlns:svg="http://www.w3.org/2000/svg"><defs
     id="defs2608"><clipPath
       clipPathUnits="userSpaceOnUse"
       id="clipPath2626"><path
         d="M 0,512 H 512 V 0 H 0 Z"
         id="path2624" /></clipPath></defs><g
     id="g2610"
     transform="matrix(1.3333333,0,0,-1.3333333,0,682.66667)"><g
       id="g2612"
       transform="translate(167.1802,118.8901)"><path
         d="m 0,0 -48.29,48.29 225.93,225.93 48.29,-48.29 z"
         style="fill:#88c3e0;fill-opacity:1;fill-rule:nonzero;stroke:none"
         id="path2614" /></g><g
       id="g2616"
       transform="translate(167.1802,118.8901)"><path
         d="m 0,0 -21.5,21.5 225.93,225.93 21.5,-21.5 z"
         style="fill:#6eabc9;fill-opacity:1;fill-rule:nonzero;stroke:none"
         id="path2618" /></g><g
       id="g2620"><g
         id="g2622"
         clip-path="url(#clipPath2626)"><g
           id="g2628"
           transform="translate(477.499,348.1465)"><path
             d="m 0,0 c -36.407,-36.407 -95.626,-36.021 -131.196,1.267 -33.873,35.51 -33.289,92.355 1.279,127.515 24.623,25.046 59.932,33.038 91.265,23.936 3.585,-1.041 4.762,-5.515 2.113,-8.163 l -39.423,-39.424 c -0.025,-10.802 -0.04,-16.858 -0.065,-27.66 l 24.145,-24.146 c 10.803,0.026 16.859,0.04 27.661,0.066 l 39.424,39.424 c 2.651,2.651 7.123,1.466 8.165,-2.122 C 32.396,59.601 24.594,24.594 0,0"
             style="fill:#a9dbf5;fill-opacity:1;fill-rule:nonzero;stroke:none"
             id="path2630" /></g><g
           id="g2632"
           transform="translate(477.498,348.1465)"><path
             d="m 0,0 c 24.595,24.594 32.397,59.601 23.369,90.693 -1.042,3.588 -5.514,4.773 -8.165,2.122 L 2.758,80.369 C 0.837,59.758 -8.022,39.644 -23.833,23.833 -55.611,-7.945 -104.766,-11.685 -140.406,12.674 c 2.723,-3.988 5.781,-7.812 9.211,-11.407 C -95.625,-36.021 -36.406,-36.407 0,0"
             style="fill:#88c3e0;fill-opacity:1;fill-rule:nonzero;stroke:none"
             id="path2634" /></g><g
           id="g2636"
           transform="translate(34.5015,163.8535)"><path
             d="m 0,0 c 36.407,36.407 95.625,36.021 131.195,-1.267 33.874,-35.51 33.29,-92.355 -1.278,-127.515 -24.623,-25.046 -59.932,-33.038 -91.266,-23.936 -3.584,1.041 -4.761,5.515 -2.112,8.163 l 39.422,39.424 c 0.026,10.802 0.04,16.858 0.066,27.66 l -24.146,24.146 c -10.802,-0.026 -16.858,-0.04 -27.66,-0.066 l -39.425,-39.424 c -2.651,-2.651 -7.122,-1.466 -8.164,2.122 C -32.397,-59.601 -24.594,-24.594 0,0"
             style="fill:#a9dbf5;fill-opacity:1;fill-rule:nonzero;stroke:none"
             id="path2638" /></g><g
           id="g2640"
           transform="translate(130.9687,162.5864)"><path
             d="m 0,0 c 33.874,-35.51 33.29,-92.355 -1.278,-127.516 -13.647,-13.88 -30.578,-22.513 -48.294,-25.911 29.142,-5.601 60.536,3.041 83.022,25.911 C 68.018,-92.355 68.602,-35.51 34.728,0 12.389,23.418 -19.276,32.272 -48.761,26.607 -30.777,23.158 -13.646,14.306 0,0"
             style="fill:#88c3e0;fill-opacity:1;fill-rule:nonzero;stroke:none"
             id="path2642" /></g><g
           id="g2644"
           transform="translate(232.957,300.8037)"><path
             d="m 0,0 -21.761,-21.761 -202.194,202.194 c -2.003,2.003 -2.003,5.251 0,7.254 l 14.507,14.507 c 2.004,2.003 5.251,2.003 7.254,0 z"
             style="fill:#a9dbf5;fill-opacity:1;fill-rule:nonzero;stroke:none"
             id="path2646" /></g><g
           id="g2648"
           transform="translate(372.4424,221.2847)"><path
             d="m 0,0 122.084,-122.084 c 13.298,-13.298 13.298,-34.859 0,-48.157 l -33.57,-33.57 c -13.298,-13.298 -34.859,-13.298 -48.157,0 L -81.727,-81.727 c -7.661,7.661 -14.256,16.317 -19.609,25.736 l -7.778,13.686 c -5.353,9.419 -11.949,18.075 -19.609,25.736 l -41.219,41.219 63.565,63.565 41.22,-41.219 c 7.66,-7.661 16.316,-14.256 25.735,-19.609 l 13.686,-7.778 C -16.317,14.256 -7.661,7.661 0,0"
             style="fill:#f75632;fill-opacity:1;fill-rule:nonzero;stroke:none"
             id="path2650" /></g><g
           id="g2652"
           transform="translate(346.7061,240.8936)"><path
             d="m 0,0 -13.686,7.778 c -9.418,5.353 -18.075,11.949 -25.735,19.609 l -41.22,41.219 -21.245,-21.245 41.219,-41.219 c 7.661,-7.661 16.317,-14.257 25.736,-19.609 l 13.686,-7.779 c 9.419,-5.352 18.075,-11.948 25.736,-19.608 l 122.084,-122.084 c 13.298,-13.299 13.298,-34.859 0,-48.157 l 21.245,21.245 c 13.298,13.299 13.298,34.859 0,48.157 L 25.736,-19.609 C 18.075,-11.949 9.419,-5.353 0,0"
             style="fill:#e33629;fill-opacity:1;fill-rule:nonzero;stroke:none"
             id="path2654" /></g><g
           id="g2656"
           transform="translate(415.5146,36.0039)"><path
             d="m 0,0 v 0 c -5.866,-5.867 -15.379,-5.867 -21.245,0 l -89.232,89.23 c -5.866,5.868 -5.866,15.379 0,21.246 h 0.001 c 5.867,5.867 15.378,5.867 21.246,0 L 0,21.246 C 5.867,15.378 5.867,5.867 0,0"
             style="fill:#f3f3f3;fill-opacity:1;fill-rule:nonzero;stroke:none"
             id="path2658" /></g><g
           id="g2660"
           transform="translate(475.9961,96.4854)"><path
             d="m 0,0 v 0 c -5.867,-5.867 -15.379,-5.867 -21.245,0 l -89.232,89.23 c -5.866,5.868 -5.866,15.379 0,21.246 5.868,5.867 15.379,5.867 21.247,0 L 0,21.245 C 5.867,15.378 5.867,5.867 0,0"
             style="fill:#e4e4e4;fill-opacity:1;fill-rule:nonzero;stroke:none"
             id="path2662" /></g><g
           id="g2664"
           transform="translate(271.9014,303.5684)"><path
             d="m 0,0 -63.47,-63.469 c -7.48,-7.481 -19.72,-7.481 -27.2,0 h -0.001 c -7.48,7.48 -7.48,19.72 0,27.2 l 63.47,63.47 c 7.48,7.48 19.72,7.48 27.2,0 H 0 C 7.479,19.72 7.479,7.48 0,0"
             style="fill:#f3f3f3;fill-opacity:1;fill-rule:nonzero;stroke:none"
             id="path2666" /></g><g
           id="g2668"
           transform="translate(271.9014,330.769)"><path
             d="m 0,0 h -0.001 c -7.48,7.48 -19.72,7.48 -27.2,0 l -19.478,-19.477 c 7.48,7.48 19.72,7.48 27.2,0 l 10e-4,-0.001 c 7.48,-7.48 7.48,-19.72 0,-27.2 L 0,-27.201 C 7.479,-19.72 7.479,-7.48 0,0"
             style="fill:#e4e4e4;fill-opacity:1;fill-rule:nonzero;stroke:none"
             id="path2670" /></g><g
           id="g2672"
           transform="translate(489.2207,56.3569)"><path
             d="m 0,0 -33.567,-33.565 c -10.355,-10.347 -27.202,-10.347 -37.554,-0.002 l -3.532,3.532 c 2.285,1.091 4.402,2.551 6.246,4.394 h 10e-4 c 4.254,4.254 6.596,9.91 6.596,15.925 0,6.016 -2.342,11.672 -6.596,15.925 l -89.23,89.225 c -8.781,8.78 -23.068,8.78 -31.851,0 -1.862,-1.862 -3.305,-3.98 -4.377,-6.233 -6.898,7.007 -12.865,14.884 -17.726,23.444 l -7.779,13.687 c -5.663,9.973 -12.67,19.169 -20.828,27.339 l -30.034,30.023 52.961,52.958 30.029,-30.036 c 8.164,-8.153 17.36,-15.159 27.333,-20.822 l 13.691,-7.78 c 8.559,-4.861 16.435,-10.827 23.444,-17.726 -2.253,-1.072 -4.372,-2.515 -6.235,-4.377 -8.779,-8.781 -8.779,-23.068 0,-31.85 L -80.514,75.57 c 2.93,-2.928 7.678,-2.93 10.608,0 2.928,2.929 2.928,7.677 0,10.605 l -48.494,48.492 c -2.933,2.933 -2.934,7.706 -10e-4,10.638 2.916,2.916 7.649,2.929 10.585,0.049 L -42.731,80.277 -18.533,56.08 c 1.421,-1.42 2.203,-3.309 2.203,-5.319 0,-2.009 -0.782,-3.898 -2.203,-5.318 -1.422,-1.422 -3.31,-2.204 -5.32,-2.204 -2.008,0 -3.898,0.782 -5.318,2.203 l -18.124,18.122 c -2.928,2.928 -7.677,2.928 -10.606,0 -2.928,-2.929 -2.928,-7.677 0.001,-10.606 l 18.122,-18.121 c 4.254,-4.254 9.91,-6.597 15.925,-6.597 6.015,0 11.671,2.343 15.925,6.596 1.844,1.844 3.305,3.962 4.396,6.247 l 3.53,-3.53 C 10.346,27.199 10.346,10.352 0,0 m -178.879,84.828 c 1.42,1.421 3.31,2.203 5.318,2.203 2.009,0 3.898,-0.782 5.319,-2.203 l 89.228,-89.224 c 1.422,-1.421 2.204,-3.311 2.204,-5.32 0,-2.009 -0.782,-3.898 -2.203,-5.319 h -10e-4 c -1.42,-1.421 -3.309,-2.203 -5.319,-2.203 -2.009,0 -3.898,0.782 -5.318,2.203 l -21.749,21.748 -67.538,67.54 c -2.871,2.939 -2.854,7.663 0.059,10.575 m -139.216,26.585 c -6.808,7.136 -14.619,13.157 -23.114,17.928 l 41.764,41.762 c 1.67,-0.319 3.363,-0.479 5.058,-0.479 4.402,0 8.804,1.084 12.772,3.241 l 30.153,-30.143 -52.048,-52.046 c -3.977,7.098 -8.855,13.73 -14.585,19.737 m 15.41,94.227 63.468,63.465 c 2.287,2.287 5.292,3.431 8.296,3.431 3.005,0 6.011,-1.144 8.298,-3.431 1.141,-1.141 1.996,-2.46 2.568,-3.869 0.002,-0.007 0.005,-0.013 0.008,-0.019 1.71,-4.237 0.852,-9.277 -2.576,-12.705 l -63.468,-63.466 c -3.43,-3.429 -8.471,-4.287 -12.708,-2.574 -0.005,0.001 -0.009,0.003 -0.014,0.005 -1.41,0.572 -2.73,1.428 -3.872,2.57 -4.575,4.575 -4.575,12.018 0,16.593 m 154.338,82.235 c 6.874,-7.207 14.642,-13.232 23.063,-17.98 l -52.013,-52.011 -30.143,30.151 c 2.985,5.495 3.909,11.82 2.76,17.829 l 41.749,41.747 c 3.977,-7.098 8.854,-13.73 14.584,-19.736 m 12.055,127.425 c 16.175,16.452 37.965,25.343 60.297,25.343 6.399,0 12.847,-0.731 19.214,-2.223 l -36.21,-36.209 c -1.402,-1.402 -2.192,-3.302 -2.197,-5.285 l -0.065,-27.659 c -0.005,-1.995 0.786,-3.91 2.196,-5.321 l 24.146,-24.143 c 1.407,-1.407 3.314,-2.197 5.304,-2.197 h 0.017 l 27.66,0.065 c 1.984,0.005 3.884,0.795 5.286,2.197 l 36.209,36.209 c 6.628,-28.315 -1.827,-58.222 -22.596,-78.99 -16.264,-16.265 -37.906,-25.059 -60.805,-24.802 -11.034,0.13 -21.69,2.379 -31.538,6.518 -0.24,0.113 -0.485,0.212 -0.735,0.298 -10.185,4.397 -19.481,10.841 -27.384,19.126 -15.025,15.75 -23.176,36.572 -22.953,58.632 0.223,22.072 8.8,42.827 24.154,58.441 M -30.088,88.847 -97.155,155.912 c -0.02,0.018 -0.04,0.034 -0.059,0.052 l -14.263,14.261 c -8.127,8.137 -17.323,15.146 -27.331,20.83 l -13.691,7.78 c -4.732,2.687 -9.259,5.728 -13.561,9.074 l 55.309,55.306 c 10.348,-3.762 21.375,-5.794 32.738,-5.928 0.405,-0.005 0.805,-0.007 1.208,-0.007 26.568,0 51.523,10.343 70.381,29.201 25.692,25.692 35.373,63.274 25.266,98.081 -1.239,4.269 -4.543,7.476 -8.837,8.579 -4.276,1.098 -8.702,-0.115 -11.833,-3.245 l -37.234,-37.233 -21.446,-0.051 -19.737,19.736 0.05,21.446 37.232,37.231 c 3.132,3.131 4.346,7.555 3.247,11.835 -1.101,4.292 -4.305,7.595 -8.571,8.833 -35.15,10.209 -72.97,0.293 -98.701,-25.878 -18.089,-18.397 -28.194,-42.831 -28.456,-68.804 -0.122,-12.075 1.892,-23.839 5.86,-34.84 l -42.448,-42.446 c -10.422,10.408 -27.373,10.403 -37.791,-0.014 l -15.552,-15.55 -121.502,121.497 c -2.929,2.928 -7.678,2.928 -10.606,0 -2.93,-2.929 -2.93,-7.678 0,-10.606 l 121.503,-121.497 -11.154,-11.153 -186.099,186.092 11.153,11.152 41.993,-41.991 c 2.929,-2.929 7.678,-2.929 10.607,0 2.928,2.928 2.928,7.677 0,10.605 l -43.672,43.67 c -4.923,4.923 -12.933,4.923 -17.856,0 l -14.509,-14.509 c -4.923,-4.922 -4.923,-12.933 0,-17.855 l 187.777,-187.77 -15.551,-15.55 c -10.418,-10.418 -10.423,-27.367 -0.014,-37.79 l -42.444,-42.444 c -7.178,2.62 -14.667,4.434 -22.334,5.326 -4.114,0.48 -7.837,-2.467 -8.316,-6.582 -0.479,-4.114 2.468,-7.837 6.582,-8.316 19.338,-2.251 37.403,-11.265 50.869,-25.38 15.024,-15.749 23.176,-36.573 22.953,-58.633 -0.223,-22.071 -8.8,-42.825 -24.153,-58.44 -20.81,-21.166 -50.922,-29.82 -79.513,-23.12 l 36.21,36.209 c 1.403,1.402 2.192,3.302 2.197,5.285 l 0.066,27.659 c 0.004,1.995 -0.786,3.91 -2.197,5.32 l -24.145,24.144 c -1.407,1.407 -3.315,2.197 -5.303,2.197 h -0.018 l -27.66,-0.065 c -1.983,-0.005 -3.884,-0.795 -5.285,-2.197 l -36.21,-36.208 c -6.628,28.314 1.826,58.221 22.596,78.989 11.107,11.108 25,18.889 40.178,22.504 4.028,0.959 6.517,5.004 5.557,9.033 -0.959,4.029 -5.002,6.517 -9.033,5.557 -17.878,-4.257 -34.237,-13.417 -47.309,-26.488 -25.692,-25.692 -35.374,-63.274 -25.266,-98.081 1.24,-4.269 4.543,-7.476 8.837,-8.579 4.278,-1.099 8.701,0.114 11.833,3.246 l 37.234,37.232 21.446,0.051 19.737,-19.736 -0.051,-21.446 -37.232,-37.231 c -3.131,-3.132 -4.345,-7.555 -3.246,-11.836 1.101,-4.291 4.305,-7.593 8.57,-8.833 9.146,-2.656 18.468,-3.95 27.717,-3.95 26.292,10e-4 51.95,10.466 70.986,29.829 18.088,18.396 28.193,42.832 28.455,68.804 0.122,12.075 -1.893,23.839 -5.861,34.84 l 55.371,55.369 c 3.347,-4.302 6.388,-8.829 9.076,-13.562 l 7.779,-13.687 c 5.684,-10.008 12.693,-19.203 20.826,-27.327 l 14.261,-14.261 c 0.021,-0.021 0.037,-0.044 0.058,-0.064 l 67.945,-67.942 39.815,-39.817 c 8.101,-8.095 18.741,-12.141 29.38,-12.141 10.641,0 21.284,4.047 29.385,12.143 l 33.571,33.569 c 16.188,16.2 16.188,42.559 -0.003,58.762 z"
             style="fill:#000000;fill-opacity:1;fill-rule:nonzero;stroke:none"
             id="path2674" /></g></g></g></g></svg>
