<?xml version="1.0" encoding="UTF-8"?>
<svg xmlns="http://www.w3.org/2000/svg" id="Icons" viewBox="0 0 60 60" width="10" height="10">
<path d="M58,36H55a4,4,0,0,0-4,4v4H42.547L40.6,39.841a7.471,7.471,0,0,0,1.429-4.393,7.381,7.381,0,0,
0-.221-1.771l11.7-4.734a3.983,3.983,0,0,0,2.2-5.179l-.81-2a2.944,2.944,0,0,0,.787-3.34l-6.7-16.567A3,3,0,
0,0,45.1.221L1.866,17.714A2.983,2.983,0,0,0,2,23.3l7.456,2.613.921,2.274-2,.807A2.984,2.984,0,0,0,5.042,28.2L3.2,
28.946a2.974,2.974,0,0,0-1.644,3.882l3.719,9.193a3.015,3.015,0,0,0,3.883,1.66l1.853-.747a3,3,0,0,0,
1.843-2.891l2-.808.37.912a3.976,3.976,0,0,0,5.179,2.2l7.642-3.092a7.463,7.463,0,0,0,5.129,3.581l2.4
,5.132A7.03,7.03,0,0,0,41.91,52H51v4a4,4,0,0,0,4,4h3a2,2,0,0,0,2-2V38A2,2,0,0,0,58,36ZM2,20.5a.96.96,
0,0,1,.615-.933L45.848,2.074a1,1,0,0,1,1.286.54l6.7,16.567a.953.953,0,0,1-.005.743.971.971,0,0,
1-.537.529L28.873,30.334a.99.99,0,0,1-.7.014L2.66,21.409A.964.964,0,0,1,2,20.5Zm8.248,20.582-1.841.742a.991.991,0,
0,1-1.281-.549L3.4,32.072a.984.984,0,0,1,.54-1.271l1.846-.744a.992.992,0,0,1,1.28.539l3.723,9.2A.993.993,0,0,1,10.248,
41.083Zm2.023-2.963L9.3,30.776l1.825-.739L14.1,37.381Zm7.375,2.368A1.976,1.976,0,0,1,17.07,39.4l-5.1-12.608,15.548,
5.447a2.994,2.994,0,0,0,2.1-.047l23.495-9.507.741,1.833a1.98,1.98,0,0,1-1.091,2.574Zm10.276-2L39.94,34.434a5.427,
5.427,0,0,1,.094,1.014,5.511,5.511,0,0,1-10.112,3.04ZM41.91,50a5.02,5.02,0,0,1-4.534-2.883L35.41,42.908a7.467,
7.467,0,0,0,3.707-1.527L41,45.423A1,1,0,0,0,41.91,46H51v4ZM58,58H55a2,2,0,0,1-2-2V40a2,2,0,0,1,2-2h3Z"/></svg>
