<svg xmlns="http://www.w3.org/2000/svg" xmlns:xlink="http://www.w3.org/1999/xlink" width="2rem" height="2rem" viewBox="0 0 50.782 50.782"><defs><style>.a,.b{fill-rule:evenodd;}.a{fill:url(#a);}.b{fill:#fff;}</style><linearGradient id="a" x1="2.612" y1="1.012" x2="2.612" y2="-4.228" gradientUnits="objectBoundingBox"><stop offset="0" stop-color="#61fd7d"/><stop offset="1" stop-color="#2bb826"/></linearGradient></defs><path class="a" d="M50.782,37.9c0,.278-.009.881-.026,1.347a26.641,26.641,0,0,1-.268,3.28,10.887,10.887,0,0,1-.919,2.748,9.765,9.765,0,0,1-4.308,4.3,10.931,10.931,0,0,1-2.764.92,26.945,26.945,0,0,1-3.255.263c-.467.017-1.07.025-1.347.025h-25c-.278,0-.881-.009-1.347-.026a26.865,26.865,0,0,1-3.28-.267,10.946,10.946,0,0,1-2.749-.92,9.77,9.77,0,0,1-4.307-4.312,10.931,10.931,0,0,1-.92-2.764,26.979,26.979,0,0,1-.263-3.255C.008,38.772,0,38.168,0,37.888v-25c0-.278.009-.881.025-1.347A27.46,27.46,0,0,1,.3,8.26a10.947,10.947,0,0,1,.919-2.749,9.779,9.779,0,0,1,4.308-4.3A10.931,10.931,0,0,1,8.289.288,26.978,26.978,0,0,1,11.544.025C12.01.008,12.614,0,12.894,0h25c.278,0,.881.009,1.347.025A27.46,27.46,0,0,1,42.522.3a10.947,10.947,0,0,1,2.749.919,9.779,9.779,0,0,1,4.3,4.308,10.93,10.93,0,0,1,.92,2.764,26.945,26.945,0,0,1,.263,3.255c.017.466.025,1.07.025,1.347Z" transform="translate(0 0)"/><path class="b" d="M111.153,85.782a17.228,17.228,0,0,0-27.108,20.786L81.6,115.494l9.133-2.4a17.213,17.213,0,0,0,8.232,2.1h.007A17.227,17.227,0,0,0,111.15,85.785h0ZM98.969,112.3a14.3,14.3,0,0,1-7.294-2l-.523-.311L85.733,111.4l1.447-5.284-.339-.543a14.319,14.319,0,1,1,12.127,6.713h0Zm7.85-10.732c-.428-.218-2.547-1.257-2.941-1.4s-.679-.217-.972.218-1.113,1.4-1.365,1.686-.5.326-.929.108a11.866,11.866,0,0,1-3.464-2.138,13.248,13.248,0,0,1-2.4-2.976c-.252-.423-.029-.666.19-.876.2-.191.428-.5.646-.754a2.8,2.8,0,0,0,.428-.72.792.792,0,0,0-.035-.754c-.108-.216-.972-2.336-1.323-3.2-.346-.844-.706-.726-.971-.741s-.538-.013-.822-.013a1.587,1.587,0,0,0-1.148.537,4.818,4.818,0,0,0-1.508,3.592A8.377,8.377,0,0,0,91.97,98.59c.216.289,3.036,4.638,7.354,6.5,1.026.44,1.827.705,2.452.911a5.951,5.951,0,0,0,2.71.17,4.431,4.431,0,0,0,2.907-2.045,3.593,3.593,0,0,0,.253-2.045c-.107-.178-.388-.3-.822-.518h0Z" transform="translate(-73.507 -72.722)"/></svg>