<svg xmlns="http://www.w3.org/2000/svg" version="1.1" xmlns:xlink="http://www.w3.org/1999/xlink" xmlns:svgjs="http://svgjs.com/svgjs" width="15" height="12" x="0" y="0" viewBox="0 0 455.111 455.111" style="enable-background:new 0 0 512 512" xml:space="preserve" class=""><g>
<circle style="" cx="227.556" cy="227.556" r="227.556" fill="#ffb900" data-original="#e24c4b" class=""></circle>
<path style="" d="M455.111,227.556c0,125.156-102.4,227.556-227.556,227.556c-72.533,0-136.533-32.711-177.778-85.333
	c38.4,31.289,88.178,49.778,142.222,49.778c125.156,0,227.556-102.4,227.556-227.556c0-54.044-18.489-103.822-49.778-142.222
	C422.4,91.022,455.111,155.022,455.111,227.556z" fill="#e7a906" data-original="#d1403f" class=""></path>
<path style="" d="M331.378,331.378c-8.533,8.533-22.756,8.533-31.289,0l-72.533-72.533l-72.533,72.533
	c-8.533,8.533-22.756,8.533-31.289,0c-8.533-8.533-8.533-22.756,0-31.289l72.533-72.533l-72.533-72.533
	c-8.533-8.533-8.533-22.756,0-31.289c8.533-8.533,22.756-8.533,31.289,0l72.533,72.533l72.533-72.533
	c8.533-8.533,22.756-8.533,31.289,0c8.533,8.533,8.533,22.756,0,31.289l-72.533,72.533l72.533,72.533
	C339.911,308.622,339.911,322.844,331.378,331.378z" fill="#ffffff" data-original="#ffffff" class=""></path>
<g>
</g>
<g>
</g>
<g>
</g>
<g>
</g>
<g>
</g>
<g>
</g>
<g>
</g>
<g>
</g>
<g>
</g>
<g>
</g>
<g>
</g>
<g>
</g>
<g>
</g>
<g>
</g>
<g>
</g>
</g></svg>