<svg xmlns="http://www.w3.org/2000/svg" version="1.1" xmlns:xlink="http://www.w3.org/1999/xlink" xmlns:svgjs="http://svgjs.com/svgjs" width="15" height="12" x="0" y="0" viewBox="0 0 455.111 455.111" style="enable-background:new 0 0 512 512" xml:space="preserve" class=""><g>
<circle style="" cx="227.556" cy="227.556" r="227.556" fill="#0077b6" data-original="#e24c4b" class=""></circle>
<path style="" d="M455.111,227.556c0,125.156-102.4,227.556-227.556,227.556c-72.533,0-136.533-32.711-177.778-85.333
	c38.4,31.289,88.178,49.778,142.222,49.778c125.156,0,227.556-102.4,227.556-227.556c0-54.044-18.489-103.822-49.778-142.222
	C422.4,91.022,455.111,155.022,455.111,227.556z" fill="#0770a7" data-original="#d1403f" class=""></path>
<path style="" d="M351.289,162.133L203.378,324.267c-9.956,11.378-27.022,11.378-36.978,0l-62.578-69.689
	c-8.533-9.956-8.533-25.6,1.422-35.556c9.956-8.533,25.6-8.533,35.556,1.422l44.089,49.778l129.422-140.8
	c9.956-9.956,25.6-11.378,35.556-1.422C359.822,136.533,359.822,153.6,351.289,162.133z" fill="#ffffff" data-original="#ffffff" class=""></path>
<g>
</g>
<g>
</g>
<g>
</g>
<g>
</g>
<g>
</g>
<g>
</g>
<g>
</g>
<g>
</g>
<g>
</g>
<g>
</g>
<g>
</g>
<g>
</g>
<g>
</g>
<g>
</g>
<g>
</g>
</g></svg>