<svg xmlns="http://www.w3.org/2000/svg" xmlns:xlink="http://www.w3.org/1999/xlink" width="2rem" height="2rem" viewBox="0 0 51.929 51.914"><defs><style>.a{fill:url(#a);}.b{fill:url(#b);}.c{fill:#fff;}</style><radialGradient id="a" cx="0.266" cy="1.077" r="0.991" gradientTransform="translate(-2.918 5.666) rotate(-90) scale(1 0.93)" gradientUnits="objectBoundingBox"><stop offset="0" stop-color="#fd5"/><stop offset="0.1" stop-color="#fd5"/><stop offset="0.5" stop-color="#ff543e"/><stop offset="1" stop-color="#c837ab"/></radialGradient><radialGradient id="b" cx="-0.168" cy="0.072" r="0.443" gradientTransform="matrix(0.196, 0.981, -4.042, 0.809, 15.634, -0.42)" gradientUnits="objectBoundingBox"><stop offset="0" stop-color="#3771c8"/><stop offset="0.128" stop-color="#3771c8"/><stop offset="1" stop-color="#60f" stop-opacity="0"/></radialGradient></defs><path class="a" d="M25.969,0c-10.84,0-14.01.011-14.626.062A12.882,12.882,0,0,0,6.226,1.348,10.365,10.365,0,0,0,3.243,3.532,11.142,11.142,0,0,0,.236,9.847C.06,11.061.009,11.309,0,17.51c0,2.067,0,4.788,0,8.437,0,10.831.012,14,.064,14.613A13.041,13.041,0,0,0,1.3,45.576a10.938,10.938,0,0,0,7.089,5.791,18.421,18.421,0,0,0,3.77.5c.643.028,7.2.048,13.754.048s13.115-.008,13.743-.04a17.739,17.739,0,0,0,3.906-.511,10.871,10.871,0,0,0,7.089-5.8,12.827,12.827,0,0,0,1.224-4.919c.035-.447.05-7.579.05-14.7s-.016-14.242-.051-14.689a12.683,12.683,0,0,0-1.249-4.968A10.291,10.291,0,0,0,48.4,3.238a11.21,11.21,0,0,0-6.322-3C40.868.063,40.626.011,34.42,0Z" transform="translate(0.003 0)"/><path class="b" d="M25.969,0c-10.84,0-14.01.011-14.626.062A12.882,12.882,0,0,0,6.226,1.348,10.365,10.365,0,0,0,3.243,3.532,11.142,11.142,0,0,0,.236,9.847C.06,11.061.009,11.309,0,17.51c0,2.067,0,4.788,0,8.437,0,10.831.012,14,.064,14.613A13.041,13.041,0,0,0,1.3,45.576a10.938,10.938,0,0,0,7.089,5.791,18.421,18.421,0,0,0,3.77.5c.643.028,7.2.048,13.754.048s13.115-.008,13.743-.04a17.739,17.739,0,0,0,3.906-.511,10.871,10.871,0,0,0,7.089-5.8,12.827,12.827,0,0,0,1.224-4.919c.035-.447.05-7.579.05-14.7s-.016-14.242-.051-14.689a12.683,12.683,0,0,0-1.249-4.968A10.291,10.291,0,0,0,48.4,3.238a11.21,11.21,0,0,0-6.322-3C40.868.063,40.626.011,34.42,0Z" transform="translate(0.003 0)"/><path class="c" d="M37.172,18c-5.206,0-5.86.023-7.9.116a14.068,14.068,0,0,0-4.653.891,9.806,9.806,0,0,0-5.608,5.606,14,14,0,0,0-.891,4.653c-.091,2.045-.115,2.7-.115,7.9s.023,5.858.116,7.9a14.088,14.088,0,0,0,.891,4.653,9.81,9.81,0,0,0,5.606,5.608,14.08,14.08,0,0,0,4.654.891c2.045.093,2.7.116,7.9.116s5.858-.023,7.9-.116a14.088,14.088,0,0,0,4.655-.891,9.822,9.822,0,0,0,5.606-5.608,14.209,14.209,0,0,0,.891-4.653c.092-2.045.116-2.7.116-7.9s-.024-5.86-.116-7.9a14.2,14.2,0,0,0-.891-4.653,9.808,9.808,0,0,0-5.607-5.606,14.112,14.112,0,0,0-4.657-.891c-2.045-.093-2.7-.116-7.9-.116Zm-1.72,3.455h1.72c5.118,0,5.725.018,7.746.11a10.613,10.613,0,0,1,3.559.66,6.352,6.352,0,0,1,3.638,3.638,10.592,10.592,0,0,1,.66,3.558c.092,2.021.112,2.628.112,7.744s-.02,5.723-.112,7.744a10.6,10.6,0,0,1-.66,3.558A6.357,6.357,0,0,1,48.477,52.1a10.575,10.575,0,0,1-3.559.661c-2.021.092-2.628.112-7.746.112s-5.725-.02-7.746-.112a10.634,10.634,0,0,1-3.56-.661,6.351,6.351,0,0,1-3.639-3.637,10.592,10.592,0,0,1-.66-3.558c-.092-2.021-.11-2.628-.11-7.747s.018-5.723.11-7.744a10.613,10.613,0,0,1,.66-3.559,6.353,6.353,0,0,1,3.639-3.639,10.59,10.59,0,0,1,3.56-.661c1.768-.08,2.454-.1,6.027-.108ZM47.4,24.638a2.3,2.3,0,1,0,2.3,2.3,2.3,2.3,0,0,0-2.3-2.3ZM37.172,27.325a9.844,9.844,0,1,0,9.843,9.845,9.845,9.845,0,0,0-9.843-9.845Zm0,3.455a6.39,6.39,0,1,1-6.39,6.39A6.39,6.39,0,0,1,37.172,30.78Z" transform="translate(-11.211 -11.211)"/></svg>