<svg xmlns="http://www.w3.org/2000/svg" width="2rem" height="2rem" viewBox="0 0 49.075 48.848"><defs><style>.a{fill:#1ca1f1;}.a,.b{fill-rule:evenodd;}.b{fill:#fff;}</style></defs><path class="a" d="M11.083,0h26.91A11.115,11.115,0,0,1,49.075,11.083V37.769A11.115,11.115,0,0,1,37.993,48.848H11.083A11.115,11.115,0,0,1,0,37.769V11.083A11.115,11.115,0,0,1,11.083,0Z" transform="translate(0 0)"/><path class="b" d="M53.155,30.924a13.3,13.3,0,0,1-3.866,1.058,6.789,6.789,0,0,0,2.963-3.718A13.6,13.6,0,0,1,47.975,29.9a6.737,6.737,0,0,0-11.65,4.6,6.969,6.969,0,0,0,.172,1.534A19.114,19.114,0,0,1,22.618,29a6.721,6.721,0,0,0-.915,3.387h0a6.725,6.725,0,0,0,3,5.591,6.789,6.789,0,0,1-3.051-.843v.088a6.733,6.733,0,0,0,5.4,6.622,6.865,6.865,0,0,1-1.777.24A7.021,7.021,0,0,1,24,43.956a6.749,6.749,0,0,0,6.29,4.677,13.579,13.579,0,0,1-9.984,2.8,19.046,19.046,0,0,0,10.328,3.027c12.381,0,19.17-10.264,19.17-19.17,0-.3,0-.583-.02-.875a13.507,13.507,0,0,0,3.359-3.479Z" transform="translate(-12.199 -16.682)"/></svg>